<svg xmlns="http://www.w3.org/2000/svg" width="75" height="20" viewBox="0 0 75 20"><g><g><path fill="#00baf1" d="M65.007.57l-2.402 2.4 5.492 5.493h-4.8L55.402.567 53.01 2.96l5.48 5.503H43.28L35.385.567 32.984 2.97l5.493 5.493H16.088l5.506-5.506-2.39-2.39-7.896 7.896h-4.83l5.506-5.506L9.597.569 0 10.161l9.592 9.592 2.402-2.401L6.5 11.859h4.8l7.896 7.895 2.4-2.399L16.1 11.86h22.397l-5.505 5.505 2.39 2.39 7.895-7.895h15.234l-5.508 5.504 2.39 2.39 7.896-7.894h4.831l-5.506 5.506 2.387 2.388 9.597-9.592z"/></g></g></svg>