<svg xmlns="http://www.w3.org/2000/svg" width="57" height="52" viewBox="0 0 57 52"><g><g><path fill="#fff" d="M54.378 49.205h-4.98V28.118c0-11.31-9.2-20.51-20.51-20.51-11.308 0-20.508 9.2-20.508 20.51v21.087H3.401V28.118C3.401 14.064 14.835 2.63 28.89 2.63c14.053 0 25.488 11.434 25.488 25.488zM41.693 31.096v-2.978c0-7.06-5.744-12.805-12.804-12.805-7.06 0-12.803 5.745-12.803 12.805v2.978h-4.978v-2.978c0-9.806 7.976-17.783 17.78-17.783 9.806 0 17.783 7.977 17.783 17.783v2.978zm-10.434 0h-4.74v-2.978a2.373 2.373 0 0 1 2.37-2.371 2.374 2.374 0 0 1 2.37 2.37zm7.707 0h-4.979v-2.978a5.104 5.104 0 0 0-5.098-5.098 5.103 5.103 0 0 0-5.097 5.098v2.978h-4.979v-2.978c0-5.556 4.52-10.077 10.076-10.077 5.556 0 10.077 4.52 10.077 10.077zM28.89-.098C13.33-.098.674 12.56.674 28.118v23.815h10.434v-18.11H46.67v18.11h10.434V28.118C57.105 12.56 44.448-.098 28.89-.098z"/></g></g></svg>