<svg xmlns="http://www.w3.org/2000/svg" width="33" height="51" viewBox="0 0 33 51"><g><g><g><path fill="#fff" d="M23.716 20.212c.393 0 .777-.04 1.15-.113H8.848a5.99 5.99 0 0 0 1.15.113z"/></g><g><path fill="#fff" d="M21.851 36.161h-3.544l.986 1.225h3.545z"/></g><g><path fill="#fff" d="M16.291 29.354v-1.241h2.76v1.24z"/></g><g><path fill="#fff" d="M20.215 34.131h-6.701l-1.001 1.242h8.703z"/></g><g><path fill="#fff" d="M1.313 49.268l.17.137h3.264l.958-1.187H2.159z"/></g><g><path fill="#fff" d="M28.023 48.218l.957 1.187h3.23l.19-.153-.833-1.034z"/></g><g><path fill="#fff" d="M2.795 47.429H6.34l.987-1.224H3.78z"/></g><g><path fill="#fff" d="M5.053 45.417H8.6l1-1.242H6.056z"/></g><g><path fill="#fff" d="M6.054 43.386h3.545l.943-1.17H6.997z"/></g><g><path fill="#fff" d="M30.251 50.983l.98-.79h-1.616z"/></g><g><path fill="#fff" d="M26.73 42.216h-3.544l.943 1.17h3.545z"/></g><g><path fill="#fff" d="M3.461 51l.65-.807h-1.65z"/></g><g><path fill="#fff" d="M24.474 39.416l-1-1.242h-3.545l1 1.242z"/></g><g><path fill="#fff" d="M15.477 31.367v-1.225h2.76v1.225z"/></g><g><path fill="#fff" d="M13.576 33.343h5.43l-.956-1.188h-3.517z"/></g><g><path fill="#fff" d="M29.946 46.205H26.4l.986 1.224h3.545z"/></g><g><path fill="#fff" d="M14.679 25.366v-1.224h2.76v1.224z"/></g><g><path fill="#fff" d="M10.24 39.416h3.545l1.001-1.242h-3.545z"/></g><g><path fill="#fff" d="M29.946 45.417l-1-1.242H25.4l1 1.242z"/></g><g><path fill="#fff" d="M15.477 27.324v-1.17h2.76v1.17z"/></g><g><path fill="#fff" d="M24.38 40.205h-3.545l.987 1.223h3.544z"/></g><g><path fill="#fff" d="M7.632 41.428h3.546l.986-1.223H8.62z"/></g><g><path fill="#fff" d="M10.89 37.386h3.546l.987-1.225h-3.546z"/></g><g><path fill="#fff" d="M15.476 13.604v-1.242h2.76v1.242z"/></g><g><path fill="#fff" d="M10.985 17.39v-.985h11.743v.985z"/></g><g><path fill="#fff" d="M9.408 15.616v-.986H21.15v.986z"/></g><g><path fill="#fff" d="M11.101 7.604h3.078a2.907 2.907 0 0 1-.546-1.242h-2.786c.039.43.125.845.254 1.242z"/></g><g><path fill="#fff" d="M14.343 4.35h-2.978a5.66 5.66 0 0 0-.192 1.223h2.773c.042-.445.178-.859.397-1.224z"/></g><g><path fill="#fff" d="M20.027 5.573h2.774a5.668 5.668 0 0 0-.193-1.224h-2.977c.218.365.354.78.396 1.224z"/></g><g><path fill="#fff" d="M16.856.148a5.67 5.67 0 0 0-3.709 1.382h7.418A5.669 5.669 0 0 0 16.856.148z"/></g><g><path fill="#fff" d="M16.059 2.908c.692 0 1.32.25 1.823.653h3.392a5.692 5.692 0 0 0-.75-1.242h-8.931c-.3.378-.553.795-.75 1.242h3.393a2.908 2.908 0 0 1 1.823-.653z"/></g><g><path fill="#fff" d="M19.742 6.362a2.909 2.909 0 0 1-.546 1.242h3.078c.129-.397.215-.813.254-1.242z"/></g><g><path fill="#fff" d="M22.528 8.392h-3.653a2.9 2.9 0 0 1-1.436.391 2.9 2.9 0 0 1-1.437-.39h-3.653c.223.444.502.854.829 1.223h8.52a5.7 5.7 0 0 0 .83-1.224z"/></g><g><path fill="#fff" d="M13.453 10.404a5.66 5.66 0 0 0 6.807 0z"/></g><g><path fill="#fff" d="M3.467 14.514v-.121H.707v.12c0 .375.031.74.077 1.103h2.789a6.022 6.022 0 0 1-.106-1.102z"/></g><g><path fill="#fff" d="M1.23 11.573v-1.169h2.76v1.17z"/></g><g><path fill="#fff" d="M30.194 13.604v-1.242h2.76v1.242z"/></g><g><path fill="#fff" d="M1.23 13.604v-1.242h2.76v1.242z"/></g><g><path fill="#fff" d="M29.67 11.558V10.39h2.76v1.17z"/></g><g><path fill="#fff" d="M26.913 22.111H5.67a8.692 8.692 0 0 0 3.763.861H23.15a8.692 8.692 0 0 0 3.763-.86z"/></g><g><path fill="#fff" d="M32.484 14.514v-.121h-2.76v.12c0 .378-.04.745-.106 1.103h2.789c.045-.362.077-.728.077-1.102z"/></g><g><path fill="#fff" d="M29.528 17.592h3.049c.145-.384.267-.78.357-1.187h-2.858c-.14.418-.325.815-.548 1.187z"/></g><g><path fill="#fff" d="M30.51 20.352H4.367c.346.352.713.682 1.115.971h23.915c.402-.289.769-.619 1.115-.971z"/></g><g><path fill="#fff" d="M1.357 16.405v1.187h4.699v-1.187H1.44z"/></g><g><path fill="#fff" d="M15.477 19.623v-1.188h2.76v1.188z"/></g><g><path fill="#fff" d="M31.592 18.435h-3.29c-.4.462-.867.864-1.389 1.188h3.963c.27-.375.507-.772.716-1.188z"/></g><g><path fill="#fff" d="M5.459 18.435h-3.29c.21.416.446.813.716 1.188h3.963a6.068 6.068 0 0 1-1.39-1.188z"/></g></g></g></svg>