<svg xmlns="http://www.w3.org/2000/svg" width="50" height="51" viewBox="0 0 50 51"><g><g><path fill="#fff" d="M11.518 48.697a6.658 6.658 0 0 1-6.65-6.65v-.603h4.141a4.589 4.589 0 0 0 4.434 3.429 4.589 4.589 0 0 0 4.434-3.43h2.371a4.589 4.589 0 0 0 4.434 3.43 4.589 4.589 0 0 0 4.434-3.43H31.4a4.589 4.589 0 0 0 4.454 3.475 4.547 4.547 0 0 0 2.853-1.005 4.547 4.547 0 0 0 1.583-2.47h4.209v.603a6.658 6.658 0 0 1-6.651 6.651zm1.925-10.683a2.28 2.28 0 0 1 2.278 2.278 2.28 2.28 0 0 1-2.278 2.278 2.28 2.28 0 0 1-2.277-2.278 2.28 2.28 0 0 1 2.277-2.278zm11.24 0a2.28 2.28 0 0 1 2.277 2.278 2.28 2.28 0 0 1-2.278 2.278 2.28 2.28 0 0 1-2.277-2.278 2.28 2.28 0 0 1 2.277-2.278zm8.897 2.071a2.264 2.264 0 0 1 .841-1.527 2.261 2.261 0 0 1 1.675-.485 2.28 2.28 0 0 1 2.012 2.515 2.28 2.28 0 0 1-2.515 2.012 2.28 2.28 0 0 1-2.013-2.515zm-23.5-20.72c0-3.56.794-6.953 2.142-9.229H38.39c-1.185 2.527-1.845 5.777-1.845 9.23 0 3.512.679 6.8 1.897 9.34H12.289c-1.39-2.276-2.209-5.71-2.209-9.34zm34.418 14.679v5.097h-4.233a4.586 4.586 0 0 0-3.915-3.357 4.589 4.589 0 0 0-4.928 3.357h-2.306a4.598 4.598 0 0 0-3.282-3.283V31.01h16.818l-1.274-1.813c-1.584-2.255-2.53-5.93-2.53-9.83 0-3.834.92-7.472 2.462-9.733l1.227-1.8H25.834V.148H23.53v7.685H10.98l-.342.503c-1.819 2.667-2.862 6.687-2.862 11.03 0 4.421 1.075 8.487 2.948 11.153l.344.49h12.462v4.85a4.598 4.598 0 0 0-3.283 3.282h-2.371a4.589 4.589 0 0 0-4.434-3.43 4.589 4.589 0 0 0-4.434 3.43H4.867v-5.097H0v2.303h2.564v5.7c0 4.936 4.017 8.953 8.954 8.953h26.329c4.937 0 8.953-4.017 8.953-8.954v-5.7h2.565v-2.302z"/></g></g></svg>