<svg id="Countryflags.com" xmlns="http://www.w3.org/2000/svg" viewBox="0 0 300 200"><defs><style>.cls-1{fill:#fff;}.cls-2{fill:#cf142b;}.cls-3{fill:#00247d;}</style></defs><title>great_britain</title><g id="great_britain" data-name="great britain"><rect id="_14-2" data-name=" 14-2" class="cls-1" width="299.843" height="199.977"/><polygon id="_13-2" data-name=" 13-2" class="cls-2" points="134.928 119.926 134.928 199.977 164.915 199.977 164.915 119.926 299.843 119.926 299.843 79.947 164.915 79.947 164.915 0 134.928 0 134.928 79.947 0 79.947 0 119.926 134.928 119.926"/><polygon id="_12-2" data-name=" 12-2" class="cls-3" points="174.915 64.733 174.915 0 271.995 0 174.915 64.733"/><polygon id="_11-2" data-name=" 11-2" class="cls-3" points="174.915 135.244 174.915 199.977 271.995 199.977 174.915 135.244"/><polygon id="_10-2" data-name=" 10-2" class="cls-3" points="124.928 135.244 124.928 199.977 27.848 199.977 124.928 135.244"/><polygon id="_9-2" data-name=" 9-2" class="cls-3" points="124.928 64.733 124.928 0 27.848 0 124.928 64.733"/><polygon id="_8-2" data-name=" 8-2" class="cls-3" points="0 18.59 0 66.657 72.088 66.657 0 18.59"/><polygon id="_7-2" data-name=" 7-2" class="cls-3" points="299.843 18.59 299.843 66.657 227.756 66.657 299.843 18.59"/><polygon id="_6-2" data-name=" 6-2" class="cls-3" points="299.843 181.388 299.843 133.32 227.755 133.32 299.843 181.388"/><polygon id="_5-2" data-name=" 5-2" class="cls-3" points="0 181.388 0 133.32 72.087 133.32 0 181.388"/><polyline id="_4-2" data-name=" 4-2" class="cls-2" points="299.843 0 283.189 0 183.4 66.657 200.054 66.657 300 0"/><polyline id="_3-2" data-name=" 3-2" class="cls-2" points="116.443 133.317 99.789 133.317 0 199.974 16.654 199.974 116.6 133.317"/><polygon id="_2-2" data-name=" 2-2" class="cls-2" points="83.267 66.709 99.921 66.709 0 0 0 11.18 83.267 66.709"/><polygon id="_1-2" data-name=" 1-2" class="cls-2" points="216.522 133.291 199.869 133.291 299.789 200 299.79 188.82 216.522 133.291"/></g></svg>