<?xml version="1.0" encoding="utf-8"?>
<!-- Generator: Adobe Illustrator 23.0.3, SVG Export Plug-In . SVG Version: 6.00 Build 0)  -->
<svg version="1.1" id="Countryflags.com" xmlns="http://www.w3.org/2000/svg" xmlns:xlink="http://www.w3.org/1999/xlink" x="0px"
	 y="0px" viewBox="0 0 300 200" style="enable-background:new 0 0 300 200;" xml:space="preserve">
<style type="text/css">
	.st0{clip-path:url(#SVGID_2_);}
	.st1{fill:#FF0000;}
	.st2{fill:#006600;}
	.st3{fill-rule:evenodd;clip-rule:evenodd;fill:#FFFF00;}
	.st4{fill:none;stroke:#000000;stroke-width:0.286;stroke-linecap:round;stroke-linejoin:round;}
	.st5{fill:none;stroke:#000000;stroke-width:0.287;stroke-linecap:round;stroke-linejoin:round;}
	.st6{fill:none;stroke:#000000;stroke-width:0.275;stroke-linecap:round;stroke-linejoin:round;}
	.st7{fill-rule:evenodd;clip-rule:evenodd;fill:#FFFFFF;}
	.st8{fill:none;stroke:#000000;stroke-width:0.335;}
	.st9{fill-rule:evenodd;clip-rule:evenodd;fill:#FF0000;}
	.st10{fill:none;stroke:#000000;stroke-width:0.254;}
	.st11{fill:#003399;}
	.st12{fill:none;stroke:#000000;stroke-width:0.25;}
	.st13{fill:none;stroke:#000000;stroke-width:0.249;}
	.st14{fill:none;stroke:#000000;stroke-width:0.251;}
	.st15{fill-rule:evenodd;clip-rule:evenodd;}
	.st16{fill:#FFFFFF;}
	.st17{fill:#FFFF00;}
</style>
<title>all_flags</title>
<g id="portugal">
	<g id="_252-2">
		<g>
			<defs>
				<rect id="SVGID_1_" x="0" width="300" height="200"/>
			</defs>
			<clipPath id="SVGID_2_">
				<use xlink:href="#SVGID_1_"  style="overflow:visible;"/>
			</clipPath>
			<g class="st0">
				<rect id="_254-2" x="120" class="st1" width="180" height="200"/>
			</g>
		</g>
	</g>
	<rect id="_251-2" x="0" class="st2" width="120" height="200"/>
	<path id="_250-2" class="st3" d="M159.121,131.02c-15.105-0.457-84.37-43.691-84.846-50.576l3.825-6.372
		c6.87,9.983,77.678,52.029,84.633,50.54l-3.615,6.411"/>
	<path id="_249-2" class="st3" d="M77.3,73.2c-1.355,3.645,18.076,15.66,41.452,29.876s43.531,23,45.025,21.743
		c0.249-0.407,0.475-0.828,0.676-1.26c-0.281,0.423-0.962,0.554-2.024,0.247c-6.316-1.821-22.788-9.38-43.188-21.753
		s-38.147-23.77-40.906-28.616c-0.217-0.442-0.321-0.931-0.3-1.423h-0.069l-0.585,1.025L77.3,73.2z M159.48,131.215
		c-0.256,0.464-0.735,0.482-1.641,0.382c-5.652-0.628-22.8-8.963-43.081-21.109c-23.606-14.131-43.1-27-40.984-30.371l0.577-1.018
		l0.112,0.036c-1.9,5.7,38.474,28.787,40.852,30.262c23.362,14.472,43.057,22.925,44.8,20.727L159.48,131.215"/>
	<path id="_248-2" class="st4" d="M77.3,73.2c-1.355,3.645,18.074,15.66,41.452,29.876s43.531,23,45.025,21.743
		c0.249-0.407,0.475-0.828,0.676-1.26c-0.278,0.42-0.962,0.554-2.024,0.247c-6.316-1.821-22.788-9.383-43.188-21.753
		S81.089,78.281,78.33,73.437c-0.217-0.442-0.321-0.931-0.3-1.423h-0.066l-0.588,1.027L77.3,73.2z M159.48,131.22
		c-0.256,0.464-0.735,0.479-1.641,0.382c-5.649-0.628-22.8-8.963-43.081-21.109c-23.606-14.128-43.1-27-40.986-30.369l0.576-1.018
		l0.115,0.037c-1.9,5.7,38.474,28.789,40.85,30.259c23.361,14.475,43.056,22.927,44.8,20.73l-0.632,1.091L159.48,131.22z"/>
	<path id="_247-2" class="st3" d="M120.086,84.614c15.116-0.12,33.774-2.066,44.511-6.346l-2.315-3.756
		c-6.345,3.513-25.105,5.822-42.326,6.166c-20.366-0.188-34.744-2.082-41.948-6.916l-2.183,4
		C89.067,83.362,102.637,84.557,120.086,84.614"/>
	<path id="_246-2" class="st3" d="M165.22,78.354c-0.369,0.591-7.371,3.006-17.686,4.788c-9.104,1.354-18.296,2.018-27.5,1.987
		c-8.809,0.041-17.61-0.515-26.343-1.665c-10.828-1.7-16.416-4.06-18.484-4.895c0.2-0.393,0.325-0.669,0.515-1.035
		c5.837,2.309,11.926,3.923,18.14,4.809c8.665,1.148,17.398,1.706,26.138,1.67c9.141,0.005,18.269-0.672,27.309-2.026
		c10.576-1.707,16.355-3.9,17.165-4.922L165.22,78.354z M163.189,74.543c-1.145,0.92-6.858,2.947-16.91,4.551
		c-8.656,1.239-17.389,1.852-26.133,1.833c-8.442,0.064-16.877-0.479-25.241-1.625c-6.036-0.704-11.953-2.196-17.6-4.439
		c0.195-0.337,0.392-0.671,0.6-1.006c1.523,0.766,6.768,2.9,17.114,4.36c8.33,1.105,16.727,1.627,25.129,1.563
		c8.681,0.014,17.351-0.602,25.943-1.843c10.1-1.389,15.537-3.972,16.365-4.622l0.735,1.228"/>
	<path id="_245-2" class="st5" d="M165.22,78.354c-0.369,0.591-7.371,3.006-17.686,4.788c-9.104,1.353-18.296,2.019-27.5,1.99
		c-8.809,0.04-17.61-0.517-26.343-1.668c-10.828-1.7-16.416-4.06-18.482-4.895c0.2-0.393,0.325-0.666,0.515-1.035
		c5.837,2.308,11.926,3.923,18.14,4.809c8.664,1.148,17.396,1.706,26.136,1.67c9.14,0.005,18.268-0.672,27.307-2.026
		c10.579-1.707,16.355-3.9,17.168-4.922l0.747,1.289H165.22z M163.191,74.543c-1.147,0.92-6.86,2.947-16.912,4.551
		c-8.655,1.239-17.387,1.852-26.13,1.833c-8.443,0.064-16.879-0.479-25.244-1.623c-6.036-0.704-11.953-2.197-17.6-4.441
		c0.195-0.337,0.393-0.669,0.6-1.006c1.524,0.767,6.766,2.9,17.112,4.36c8.331,1.106,16.728,1.629,25.132,1.565
		c8.68,0.012,17.349-0.604,25.94-1.845c10.1-1.389,15.539-3.972,16.365-4.619L163.191,74.543z"/>
	<path id="_244-2" class="st3" d="M70.439,102.829c9.3,5,29.954,7.522,49.5,7.7c17.8,0.029,40.98-2.75,49.649-7.344l-0.24-5.013
		c-2.712,4.239-27.559,8.306-49.6,8.14s-42.524-3.57-49.348-7.98l0.038,4.5"/>
	<path id="_243-2" class="st3" d="M170.061,102.109v1.2c-1.3,1.555-9.473,3.912-19.719,5.569c-10.143,1.471-20.382,2.173-30.63,2.1
		c-9.728,0.07-19.448-0.598-29.075-2c-11.763-1.714-19.29-4.715-20.8-5.608l0.008-1.392c4.538,3.015,16.831,5.223,20.959,5.9
		c9.572,1.395,19.236,2.059,28.909,1.988c10.193,0.073,20.376-0.623,30.464-2.083c7.351-1.062,17.822-3.823,19.885-5.661
		L170.061,102.109z M170.061,97.863v1.194c-1.3,1.558-9.473,3.914-19.719,5.571c-10.142,1.471-20.382,2.173-30.63,2.1
		c-9.728,0.071-19.448-0.597-29.075-2c-11.763-1.712-19.289-4.712-20.8-5.608l0.008-1.392c4.538,3.018,16.831,5.225,20.959,5.9
		c9.572,1.393,19.236,2.057,28.909,1.987c10.193,0.074,20.376-0.623,30.464-2.085c7.351-1.062,17.822-3.823,19.885-5.662"/>
	<path id="_242-2" class="st4" d="M170.061,102.109v1.194c-1.3,1.557-9.473,3.914-19.719,5.571
		c-10.143,1.471-20.382,2.173-30.63,2.1c-9.728,0.07-19.448-0.598-29.075-2c-11.765-1.714-19.29-4.714-20.8-5.61l0.008-1.392
		c4.536,3.017,16.831,5.225,20.959,5.9c9.571,1.393,19.234,2.058,28.906,1.988c10.194,0.073,20.378-0.623,30.467-2.083
		c7.351-1.062,17.822-3.823,19.883-5.661l0,0L170.061,102.109z M170.061,97.863v1.194c-1.3,1.558-9.473,3.911-19.719,5.569
		c-10.143,1.471-20.382,2.173-30.63,2.1c-9.728,0.07-19.448-0.598-29.075-2c-11.765-1.712-19.289-4.712-20.8-5.608l0.008-1.392
		c4.536,3.016,16.831,5.223,20.959,5.9c9.571,1.395,19.234,2.061,28.906,1.99c10.194,0.074,20.378-0.623,30.467-2.085
		c7.351-1.062,17.822-3.823,19.883-5.662L170.061,97.863z"/>
	<path id="_241-2" class="st3" d="M119.9,130.161c-21.387-0.129-39.709-5.83-43.579-6.773l2.82,4.417
		c6.836,2.876,24.711,7.16,40.964,6.685s30.454-1.732,40.464-6.605l2.893-4.577C156.641,126.521,133.428,130.127,119.9,130.161"/>
	<path id="_240-2" class="st3" d="M161.651,126.86c-0.425,0.65-0.86,1.289-1.3,1.914c-5.003,1.659-10.115,2.97-15.3,3.921
		c-8.291,1.531-16.705,2.301-25.137,2.3c-18.945-0.275-34.453-3.987-41.748-7.15l-0.588-1.012l0.095-0.151l1,0.386
		c12.974,4.641,27.547,6.492,41.348,6.826c8.266-0.034,16.513-0.795,24.646-2.275c10.886-2.181,15.288-3.823,16.638-4.571
		l0.345-0.192L161.651,126.86z M164.157,122.722c0.012,0.012,0.024,0.025,0.035,0.039c-0.32,0.534-0.647,1.081-0.981,1.631
		c-6.296,2.03-12.768,3.467-19.332,4.294c-7.848,1.29-15.784,1.964-23.737,2.017c-24.51-0.623-40.376-5.415-44.146-6.6l-0.559-1.072
		c14.58,3.994,29.592,6.198,44.705,6.561c7.896-0.111,15.774-0.788,23.574-2.025c6.524-0.903,12.965-2.333,19.258-4.277
		c-0.022-0.031-0.049-0.066-0.076-0.1l1.259-0.471"/>
	<path id="_239-2" class="st6" d="M161.651,126.86c-0.425,0.65-0.86,1.292-1.3,1.914c-5.003,1.66-10.115,2.971-15.3,3.923
		c-8.292,1.529-16.705,2.299-25.137,2.3c-18.945-0.275-34.453-3.984-41.748-7.148l-0.588-1.013l0.095-0.152l1,0.388
		c12.974,4.641,27.547,6.492,41.348,6.824c8.266-0.033,16.513-0.793,24.646-2.272c10.886-2.184,15.288-3.826,16.638-4.571
		L161.651,126.86z M164.157,122.722c0.012,0.012,0.024,0.025,0.035,0.039c-0.318,0.537-0.647,1.081-0.981,1.631
		c-6.295,2.03-12.766,3.468-19.329,4.294c-7.849,1.29-15.786,1.964-23.74,2.017c-24.507-0.623-40.376-5.415-44.146-6.6l-0.559-1.072
		c14.58,3.994,29.592,6.198,44.705,6.561c7.897-0.111,15.776-0.788,23.576-2.025c6.524-0.903,12.965-2.333,19.258-4.277
		c-0.022-0.031-0.049-0.066-0.078-0.1l1.262-0.471L164.157,122.722z"/>
	<path id="_238-2" class="st3" d="M164.414,98.879c0.071,14.07-7.129,26.694-12.927,32.263
		c-8.523,8.293-19.897,13.009-31.787,13.181c-14.184,0.262-27.561-8.986-31.147-13.049c-7.014-7.942-12.725-18.027-12.908-31.621
		c0.869-15.354,6.9-26.05,15.632-33.384c8.46-6.968,19.102-10.739,30.062-10.652c11.178,0.3,24.238,5.779,33.261,16.665
		c5.911,7.134,8.472,14.876,9.812,26.6L164.414,98.879z M119.822,50.708c27.244,0,49.648,22.17,49.648,49.353
		s-22.4,49.351-49.648,49.351c-27.255,0.245-49.549-21.651-49.794-48.906s21.651-49.549,48.906-49.794
		c0.296-0.003,0.592-0.003,0.888,0"/>
	<path id="_237-2" class="st4" d="M119.956,50.539c27.344-0.002,49.513,22.163,49.515,49.507s-22.163,49.513-49.507,49.515
		c-27.344,0.002-49.513-22.163-49.515-49.507c0-0.001,0-0.002,0-0.003C70.497,72.728,92.633,50.59,119.956,50.539z M119.956,51.628
		c26.743-0.002,48.424,21.675,48.426,48.418c0.002,26.743-21.675,48.424-48.418,48.426s-48.424-21.675-48.426-48.418
		c0-0.001,0-0.002,0-0.003C71.643,73.353,93.258,51.736,119.956,51.628z M119.995,54.655c25.047-0.003,45.355,20.299,45.358,45.346
		c0.003,25.047-20.299,45.355-45.346,45.358c-25.047,0.003-45.355-20.299-45.358-45.346c0-0.002,0-0.004,0-0.006
		C74.748,75.001,94.994,54.754,120,54.655H119.995z M119.995,55.744c24.445-0.002,44.264,19.813,44.266,44.258
		c0.002,24.445-19.813,44.264-44.258,44.266s-44.264-19.813-44.266-44.258c0-0.001,0-0.002,0-0.003
		C75.834,75.602,95.595,55.841,120,55.744L119.995,55.744z"/>
	<polygon id="_236-2" class="st3" points="121.56,49.765 121.56,50.312 118.435,50.312 118.435,49.78 117.356,49.78 117.356,150.39 
		118.435,150.39 118.435,149.922 121.575,149.922 121.575,150.407 122.654,150.407 122.639,49.765 	"/>
	<path id="_235-2" class="st4" d="M118.511,50.339h3.008 M118.519,149.819h3.022"/>
	<path id="_234-2" class="st4" d="M121.565,49.772h1.079l0.01,100.625h-1.082L121.565,49.772z M117.354,49.772h1.088v100.625h-1.089
		L117.354,49.772L117.354,49.772z"/>
	<path id="_233-2" class="st3" d="M70.271,97.939c6.206-5.715,29.111-9.421,49.436-9.324s44.39,4.27,49.624,9.2l0.054,4.263
		c-4.385-4.124-23.084-9.043-49.639-9.1s-45.835,5-49.477,9.209v-4.253"/>
	<path id="_232-2" class="st4" d="M70.259,98.139v3.679 M169.494,98.291v3.681"/>
	<path id="_231-2" class="st3" d="M119.976,92.385c10.743-0.051,21.467,0.906,32.031,2.859c9.284,1.858,15.82,4.179,18.052,6.787
		v1.289c-2.693-3.242-11.487-5.623-18.259-6.982c-10.495-1.94-21.149-2.89-31.821-2.837c-10.897-0.034-21.774,0.937-32.493,2.9
		c-7.061,1.4-16.477,4.187-17.652,6.931v-1.345c0.645-1.9,7.656-4.741,17.493-6.709c10.772-1.966,21.702-2.935,32.652-2.893
		L119.976,92.385z M119.976,88.139c10.743-0.051,21.467,0.906,32.031,2.859c9.284,1.858,15.82,4.18,18.052,6.787v1.29
		c-2.693-3.245-11.484-5.623-18.257-6.983c-10.495-1.94-21.15-2.89-31.823-2.837c-10.88-0.035-21.739,0.935-32.44,2.9
		c-6.811,1.292-16.614,4.185-17.7,6.929v-1.342c0.645-1.88,7.8-4.822,17.493-6.71c10.772-1.967,21.702-2.935,32.652-2.893"/>
	<path id="_230-2" class="st4" d="M119.976,92.385c10.743-0.051,21.467,0.906,32.031,2.859c9.284,1.855,15.82,4.177,18.054,6.787
		v1.289c-2.7-3.245-11.487-5.623-18.26-6.982c-10.495-1.94-21.15-2.89-31.823-2.837c-10.897-0.035-21.774,0.936-32.493,2.9
		c-7.061,1.4-16.475,4.185-17.652,6.929v-1.343c0.648-1.9,7.656-4.741,17.493-6.709c10.772-1.967,21.702-2.936,32.652-2.893
		L119.976,92.385z M119.976,88.139c10.743-0.051,21.467,0.906,32.031,2.859c9.284,1.858,15.82,4.177,18.054,6.785v1.292
		c-2.7-3.245-11.487-5.623-18.26-6.983c-10.495-1.94-21.15-2.89-31.823-2.837c-10.88-0.035-21.739,0.935-32.44,2.9
		c-6.811,1.292-16.611,4.185-17.7,6.932v-1.345c0.645-1.88,7.8-4.822,17.493-6.71c10.772-1.967,21.702-2.935,32.652-2.893
		L119.976,88.139z"/>
	<path id="_229-2" class="st3" d="M119.741,66.479c18.423-0.092,34.495,2.576,41.846,6.343l2.683,4.638
		c-6.392-3.442-23.728-7.023-44.5-6.488c-16.929,0.105-35.015,1.865-44.089,6.706l3.2-5.354c7.446-3.862,25.01-5.823,40.859-5.842"
		/>
	<line id="_228-2" class="st5" x1="162.056" y1="73.574" x2="163.879" y2="76.506"/>
	<path id="_227-2" class="st3" d="M119.986,70.31c9.619-0.156,19.234,0.52,28.737,2.021c7.522,1.4,14.693,3.5,15.718,4.632l0.8,1.4
		c-2.5-1.629-8.7-3.44-16.67-4.952c-8.006-1.5-18.152-2-28.6-1.975c-11.86-0.042-21.077,0.583-28.985,1.963
		c-8.364,1.565-14.167,3.8-15.6,4.864l0.779-1.485c2.781-1.419,7.195-3.13,14.612-4.465c8.179-1.5,17.49-1.944,29.212-2.007
		L119.986,70.31z M119.981,66.069c10.056-0.027,19.985,0.532,27.726,1.924c6.1,1.189,12.142,3.044,14.351,4.695l1.162,1.848
		c-1.975-2.2-9.416-4.28-15.986-5.447c-9.021-1.346-18.132-1.992-27.253-1.931c-9.335-0.104-18.662,0.583-27.881,2.053
		c-7.221,1.374-11.88,3-13.852,4.27l1.023-1.543c2.719-1.433,7.117-2.746,12.651-3.823c9.277-1.47,18.662-2.155,28.055-2.046"/>
	<path id="_226-2" class="st5" d="M119.986,70.31c10.507-0.027,20.661,0.564,28.737,2.021c7.52,1.4,14.693,3.5,15.718,4.632l0.8,1.4
		c-2.5-1.629-8.7-3.443-16.67-4.954c-8-1.5-18.15-2-28.6-1.975c-11.86-0.04-21.074,0.585-28.985,1.965
		c-8.364,1.565-14.167,3.8-15.6,4.864l0.779-1.485c2.784-1.421,7.195-3.13,14.612-4.465c8.179-1.5,17.493-1.944,29.212-2.007
		L119.986,70.31z M119.981,66.067c10.056-0.025,19.985,0.535,27.726,1.926c6.1,1.189,12.142,3.044,14.351,4.695l1.162,1.848
		c-1.975-2.2-9.416-4.28-15.986-5.447c-9.021-1.347-18.132-1.994-27.253-1.934c-9.335-0.101-18.662,0.587-27.881,2.056
		c-7.221,1.375-11.88,3-13.852,4.27l1.023-1.543c2.722-1.433,7.117-2.746,12.651-3.823c9.277-1.471,18.662-2.156,28.055-2.048
		H119.981z"/>
	<path id="_225-2" class="st3" d="M144.575,120.63c-8.124-1.408-16.365-2.035-24.609-1.873c-30.7,0.361-40.62,6.3-41.831,8.105
		l-2.3-3.74c7.817-5.666,24.536-8.845,44.292-8.52c8.902,0.005,17.788,0.772,26.56,2.292l-2.117,3.736"/>
	<line id="_224-2" class="st4" x1="76.35" y1="123.64" x2="77.856" y2="126.233"/>
	<path id="_223-2" class="st3" d="M119.79,118.23c8.38-0.043,16.749,0.623,25.017,1.99l-0.586,1.035
		c-8.057-1.389-16.226-2.018-24.4-1.878c-11.33-0.088-22.793,0.972-32.771,3.836c-3.149,0.874-8.359,2.9-8.891,4.572l-0.584-0.962
		c0.169-0.988,3.318-3.039,9.207-4.695c11.428-3.273,22.119-3.825,33.01-3.9L119.79,118.23z M120.178,113.93
		c8.848,0.167,17.986,0.577,26.87,2.337l-0.61,1.076c-8.02-1.591-15.686-2.123-26.209-2.285c-11.367,0.02-23.425,0.83-34.387,4.019
		c-3.54,1.03-9.648,3.259-9.853,5.024l-0.584-1.033c0.134-1.6,5.422-3.693,10.181-5.078
		C96.633,114.778,108.723,113.952,120.178,113.93"/>
	<path id="_222-2" class="st6" d="M119.79,118.23c8.38-0.042,16.749,0.623,25.017,1.99l-0.586,1.035
		c-8.056-1.389-16.226-2.017-24.4-1.875c-11.333-0.091-22.793,0.969-32.771,3.833c-3.149,0.876-8.359,2.9-8.891,4.572l-0.584-0.962
		c0.169-0.988,3.318-3.039,9.207-4.695c11.431-3.273,22.119-3.825,33.01-3.9L119.79,118.23z M120.178,113.93
		c8.848,0.167,17.986,0.577,26.87,2.337l-0.61,1.076c-8.022-1.594-15.686-2.123-26.209-2.285c-11.367,0.02-23.425,0.83-34.389,4.019
		c-3.538,1.03-9.649,3.259-9.851,5.025l-0.584-1.034c0.134-1.6,5.422-3.693,10.181-5.078
		C96.633,114.778,108.723,113.952,120.178,113.93z"/>
	<path id="_221-2" class="st3" d="M78.45,72.26c15.209-0.2,85.454,42.925,85.659,50.865l-4.351,6.67
		c-1.965-9.219-73.239-51.185-85-50.391l3.689-7.144"/>
	<path id="_220-2" class="st4" d="M163.789,123.688l-3.689,5.726 M78.335,72.634l-3.43,6.36"/>
	<path id="_219-2" class="st3" d="M74.326,79.15c2.823-1.914,23.57,7.327,45.276,20.415c21.65,13.128,42.339,27.962,40.471,30.737
		l-0.612,0.967l-0.283,0.223c0.06-0.045,0.37-0.423-0.03-1.454c-0.923-3.034-15.6-14.745-39.949-29.448
		c-23.738-14.155-43.52-22.685-45.5-20.246l0.625-1.194l0,0L74.326,79.15z M164.546,123.613
		c1.785-3.525-17.459-18.023-41.316-32.136c-24.407-13.834-42-21.975-45.21-19.549l-0.715,1.3c-0.005,0.073,0.026-0.088,0.176-0.2
		c0.59-0.379,1.291-0.549,1.989-0.484c5.535,0.084,21.336,7.354,43.5,20.064c9.714,5.66,41.035,25.747,40.915,31.4
		c0.01,0.485,0.042,0.585-0.141,0.825l0.8-1.212"/>
	<path id="_218-2" class="st5" d="M74.326,79.145c2.823-1.914,23.57,7.327,45.276,20.418c21.65,13.125,42.339,27.959,40.471,30.735
		l-0.612,0.966l-0.283,0.223c0.06-0.044,0.37-0.425-0.03-1.453c-0.923-3.035-15.6-14.746-39.949-29.448
		c-23.738-14.153-43.52-22.686-45.5-20.247l0.625-1.194l0,0H74.326z M164.546,123.608c1.785-3.525-17.459-18.022-41.316-32.136
		c-24.407-13.833-42-21.975-45.21-19.549l-0.715,1.3c-0.005,0.07,0.026-0.09,0.178-0.205c0.59-0.38,1.291-0.55,1.989-0.483
		c5.533,0.082,21.334,7.353,43.5,20.063c9.714,5.657,41.037,25.745,40.918,31.394c0.007,0.486,0.039,0.586-0.144,0.828
		L164.546,123.608z"/>
	<path id="_217-2" class="st7" d="M90.3,105.505c0.134,16.315,13.319,29.513,29.634,29.661
		c16.382-0.002,29.676-13.252,29.732-29.634l0,0v-39.6l-59.37-0.07l0.007,39.638"/>
	<path id="_216-2" class="st8" d="M90.3,105.505c0.134,16.315,13.319,29.513,29.634,29.661
		c16.382-0.002,29.676-13.254,29.729-29.636V65.937l-59.37-0.07L90.3,105.505z"/>
	<path id="_215-2" class="st9" d="M91.411,105.559v0.024c0.016,7.518,3.035,14.719,8.386,20
		c11.082,11.118,29.078,11.147,40.196,0.066c0.007-0.007,0.014-0.014,0.021-0.021c5.344-5.292,8.35-12.501,8.35-20.022V67.195
		l-56.921-0.01l-0.034,38.374 M136.919,78.686v24.444l-0.019,2.587c0,0.707-0.04,1.414-0.12,2.117
		c-0.459,3.742-2.178,7.217-4.873,9.854c-6.709,6.588-17.488,6.49-24.076-0.219c-3.103-3.16-4.852-7.405-4.877-11.833l-0.007-27.012
		l33.972,0.061"/>
	<path id="_214-2" class="st10" d="M91.411,105.559v0.024c0.017,7.518,3.036,14.718,8.386,20
		c11.083,11.118,29.08,11.146,40.198,0.063c0.006-0.006,0.013-0.013,0.019-0.019c5.343-5.293,8.349-12.501,8.35-20.022v-38.41
		l-56.921-0.01l-0.034,38.374 M136.919,78.686v24.446l-0.019,2.585c0,0.707-0.04,1.414-0.12,2.117
		c-0.459,3.743-2.177,7.218-4.873,9.854c-6.708,6.588-17.486,6.492-24.075-0.216c-3.104-3.161-4.854-7.407-4.878-11.837
		l-0.007-27.012l33.97,0.061l0,0L136.919,78.686z"/>
	<path id="_213-2" class="st11" d="M116.318,101.203L116.318,101.203c-0.004,1.054,0.391,2.07,1.106,2.844
		c1.309,1.465,3.559,1.592,5.024,0.282c0.097-0.087,0.189-0.179,0.276-0.275c0.713-0.776,1.106-1.793,1.1-2.847v-5.385h-7.5
		l-0.013,5.383"/>
	<path id="_212-2" class="st11" d="M116.282,114.094L116.282,114.094c-0.004,1.054,0.391,2.071,1.105,2.846
		c1.314,1.464,3.565,1.585,5.029,0.271c0.095-0.086,0.186-0.176,0.271-0.271c0.713-0.776,1.106-1.793,1.1-2.847v-5.383l-7.5-0.008
		l-0.012,5.384"/>
	<path id="_211-2" class="st11" d="M105.918,101.228L105.918,101.228c-0.005,1.054,0.391,2.071,1.106,2.845
		c1.311,1.465,3.562,1.59,5.027,0.279c0.096-0.086,0.187-0.177,0.273-0.272c0.713-0.776,1.106-1.793,1.1-2.847v-5.381l-7.5-0.007
		l-0.014,5.383"/>
	<path id="_210-2" class="st11" d="M126.689,101.223L126.689,101.223c-0.004,1.056,0.393,2.074,1.111,2.849
		c1.31,1.465,3.56,1.591,5.025,0.281c0.096-0.086,0.188-0.178,0.275-0.274c0.713-0.776,1.106-1.793,1.1-2.847v-5.383l-7.5-0.007
		l-0.015,5.383"/>
	<path id="_209-2" class="st11" d="M116.316,88.195L116.316,88.195c-0.004,1.054,0.391,2.07,1.106,2.844
		c1.307,1.464,3.553,1.59,5.017,0.283c0.1-0.089,0.194-0.184,0.283-0.283c0.714-0.775,1.108-1.793,1.1-2.847v-5.383h-7.495
		l-0.012,5.383"/>
	<polyline id="_208-2" class="st3" points="100.774,70.778 100.84,72.519 98.777,72.519 98.835,70.781 100.774,70.781 	"/>
	<path id="_207-2" class="st3" d="M95.1,77.214c-0.106-1.456,0.709-2.824,2.041-3.423c1.378,0.569,2.23,1.964,2.107,3.45
		L95.1,77.214"/>
	<path id="_206-2" class="st3" d="M93.406,73.84l-0.342,3.174h2.07c0.02-2.625,1.988-3.06,2.037-3.05
		c1.285,0.448,2.119,1.691,2.045,3.05h2.075l-0.375-3.2l-7.51,0.02"/>
	<path id="_205-2" class="st12" d="M93.406,73.845l-0.342,3.172h2.07c0.02-2.624,1.988-3.061,2.034-3.051
		c1.286,0.447,2.121,1.691,2.048,3.051h2.075l-0.375-3.2L93.406,73.845z"/>
	<path id="_204-2" class="st3" d="M92.925,77.028h8.475c0.196,0.023,0.339,0.197,0.322,0.394c0.017,0.196-0.126,0.37-0.322,0.39
		h-8.475c-0.196-0.02-0.341-0.193-0.325-0.39C92.584,77.224,92.728,77.05,92.925,77.028"/>
	<path id="_203-2" class="st12" d="M92.925,77.028h8.475c0.197,0.022,0.341,0.196,0.325,0.394c0.016,0.197-0.129,0.37-0.325,0.39
		h-8.475c-0.196-0.02-0.341-0.193-0.325-0.39C92.584,77.224,92.728,77.05,92.925,77.028z"/>
	<path id="_202-2" class="st3" d="M96.006,77.014c-0.081-0.871,0.365-1.707,1.135-2.124c0.781,0.41,1.245,1.244,1.181,2.124H96.006"
		/>
	<path id="_201-2" class="st13" d="M96.006,77.014c-0.081-0.871,0.365-1.707,1.135-2.124c0.781,0.41,1.245,1.244,1.181,2.124H96.006
		"/>
	<path id="_200-2" class="st3" d="M93.106,72.529h8.122c0.195,0.026,0.332,0.204,0.307,0.399c-0.021,0.16-0.147,0.286-0.307,0.307
		h-8.122c-0.195-0.026-0.332-0.204-0.307-0.399C92.82,72.676,92.946,72.55,93.106,72.529"/>
	<path id="_199-2" class="st12" d="M93.106,72.524h8.122c0.195,0.026,0.332,0.204,0.307,0.399c-0.021,0.16-0.147,0.286-0.307,0.307
		h-8.122c-0.195-0.026-0.332-0.204-0.307-0.399C92.82,72.671,92.946,72.545,93.106,72.524z"/>
	<path id="_198-2" class="st3" d="M93.274,73.235h7.771c0.195,0.034,0.325,0.22,0.29,0.415c-0.026,0.148-0.142,0.264-0.29,0.29
		h-7.771c-0.195-0.034-0.325-0.22-0.29-0.415C93.01,73.377,93.126,73.261,93.274,73.235"/>
	<path id="_197-2" class="st12" d="M93.274,73.235h7.771c0.195,0.034,0.325,0.22,0.29,0.415c-0.026,0.148-0.142,0.264-0.29,0.29
		h-7.771c-0.195-0.034-0.325-0.22-0.29-0.415C93.01,73.377,93.126,73.261,93.274,73.235z"/>
	<path id="_196-2" class="st3" d="M95.816,67.939h0.6v0.437h0.439v-0.447h0.615v0.444h0.439v-0.447h0.616v1.006
		c0.001,0.143-0.114,0.258-0.257,0.259c-0.003,0-0.007,0-0.01,0h-2.16c-0.148,0.001-0.271-0.116-0.278-0.264v-0.994"/>
	<path id="_195-2" class="st12" d="M95.786,67.939h0.613v0.434h0.447v-0.444h0.627v0.444h0.449v-0.444h0.63v1.006
		c-0.001,0.144-0.119,0.26-0.263,0.259c-0.004,0-0.008,0-0.011,0h-2.2c-0.151,0.003-0.277-0.114-0.286-0.264v-0.994L95.786,67.939z"
		/>
	<polyline id="_194-2" class="st3" points="98.095,69.284 98.232,72.512 96.081,72.502 96.225,69.277 98.095,69.284 	"/>
	<polyline id="_193-2" class="st13" points="98.095,69.284 98.232,72.51 96.081,72.502 96.225,69.277 98.095,69.284 	"/>
	<path id="_192-2" class="st3" d="M98.454,69.518h0.6v0.435h0.437v-0.444h0.615v0.442h0.44v-0.444h0.615v1
		c0.002,0.142-0.112,0.259-0.255,0.261c-0.004,0-0.009,0-0.013,0h-2.157c-0.149,0.001-0.273-0.114-0.282-0.263v-0.994"/>
	<polygon id="_191-2" class="st14" points="100.774,70.778 100.84,72.519 98.777,72.519 98.835,70.781 100.774,70.781 	"/>
	<path id="_190-2" class="st12" d="M98.454,69.514h0.6v0.434h0.437v-0.444h0.615v0.444h0.44v-0.446h0.615v1
		c0,0.143-0.116,0.259-0.259,0.259c-0.003,0-0.006,0-0.009,0h-2.157c-0.148,0.002-0.272-0.113-0.282-0.261V69.514z"/>
	<path id="_189-2" class="st3" d="M93.149,69.518h0.6v0.435h0.439v-0.444h0.613v0.442h0.44v-0.444h0.615v1
		c0.001,0.143-0.114,0.26-0.257,0.261c-0.004,0-0.008,0-0.012,0H93.43c-0.148,0-0.27-0.115-0.278-0.263v-0.994"/>
	<path id="_188-2" class="st12" d="M93.149,69.519h0.6v0.437h0.439V69.51h0.613v0.444h0.44v-0.446h0.615v1
		c0.001,0.143-0.114,0.26-0.257,0.261c-0.004,0-0.008,0-0.012,0H93.43c-0.148,0-0.27-0.115-0.278-0.263v-0.994L93.149,69.519z"/>
	<polyline id="_187-2" class="st3" points="95.471,70.778 95.534,72.519 93.472,72.519 93.53,70.781 95.471,70.781 	"/>
	<polygon id="_186-2" class="st14" points="95.471,70.778 95.534,72.519 93.474,72.519 93.53,70.781 95.471,70.781 95.469,70.781 	
		"/>
	<path id="_185-2" class="st15" d="M96.951,70.305c-0.011-0.119,0.076-0.225,0.195-0.237s0.225,0.076,0.237,0.195
		c0.001,0.014,0.001,0.028,0,0.042v0.769h-0.432V70.305"/>
	<path id="_184-2" class="st15" d="M99.6,71.42c-0.014-0.115,0.068-0.219,0.183-0.232s0.219,0.068,0.232,0.182
		c0.002,0.017,0.002,0.033,0,0.05v0.594H99.6V71.42"/>
	<path id="_183-2" class="st15" d="M94.284,71.42c-0.014-0.114,0.068-0.218,0.182-0.231c0.114-0.014,0.218,0.068,0.231,0.182
		c0.002,0.017,0.002,0.033,0,0.05v0.594h-0.413V71.42"/>
	<polyline id="_182-2" class="st3" points="123.63,70.778 123.696,72.519 121.633,72.519 121.692,70.781 123.63,70.781 	"/>
	<path id="_181-2" class="st3" d="M117.952,77.214c-0.107-1.457,0.709-2.824,2.041-3.423c1.378,0.569,2.231,1.964,2.109,3.45
		L117.952,77.214"/>
	<path id="_180-2" class="st3" d="M116.262,73.84l-0.341,3.174h2.07c0.019-2.625,1.987-3.06,2.036-3.05
		c1.285,0.447,2.119,1.691,2.045,3.05h2.076l-0.376-3.2l-7.51,0.02"/>
	<path id="_179-2" class="st12" d="M116.262,73.845l-0.341,3.172h2.07c0.019-2.624,1.987-3.061,2.036-3.051
		c1.285,0.448,2.119,1.692,2.045,3.051h2.076l-0.376-3.2L116.262,73.845z"/>
	<path id="_178-2" class="st3" d="M115.781,77.028h8.475c0.197,0.023,0.34,0.197,0.324,0.394c0.016,0.196-0.128,0.369-0.324,0.39
		h-8.475c-0.196-0.02-0.341-0.193-0.325-0.39C115.44,77.224,115.584,77.05,115.781,77.028"/>
	<path id="_177-2" class="st12" d="M115.781,77.028h8.475c0.197,0.023,0.34,0.197,0.324,0.394c0.016,0.196-0.128,0.369-0.324,0.39
		h-8.475c-0.196-0.02-0.341-0.193-0.325-0.39C115.44,77.224,115.584,77.05,115.781,77.028z"/>
	<path id="_176-2" class="st3" d="M118.862,77.014c-0.08-0.872,0.367-1.708,1.138-2.124c0.78,0.411,1.243,1.245,1.179,2.124
		L118.862,77.014"/>
	<path id="_175-2" class="st13" d="M118.862,77.014c-0.08-0.872,0.367-1.708,1.138-2.124c0.78,0.411,1.243,1.245,1.179,2.124
		L118.862,77.014"/>
	<path id="_174-2" class="st3" d="M115.962,72.529h8.122c0.195,0.026,0.332,0.204,0.307,0.399c-0.021,0.16-0.147,0.286-0.307,0.307
		h-8.122c-0.195-0.026-0.332-0.204-0.307-0.399C115.676,72.676,115.802,72.55,115.962,72.529"/>
	<path id="_173-2" class="st12" d="M115.962,72.524h8.122c0.195,0.026,0.332,0.204,0.307,0.399c-0.021,0.16-0.147,0.286-0.307,0.307
		h-8.122c-0.195-0.026-0.332-0.204-0.307-0.399C115.676,72.671,115.802,72.545,115.962,72.524z"/>
	<path id="_172-2" class="st3" d="M116.133,73.235h7.767c0.195,0.031,0.327,0.214,0.296,0.409c-0.024,0.152-0.144,0.272-0.296,0.296
		h-7.768c-0.195-0.031-0.327-0.214-0.296-0.409C115.86,73.379,115.98,73.259,116.133,73.235"/>
	<path id="_171-2" class="st12" d="M116.133,73.235h7.767c0.195,0.031,0.327,0.214,0.296,0.409
		c-0.024,0.152-0.144,0.272-0.296,0.296h-7.768c-0.195-0.031-0.327-0.214-0.296-0.409C115.86,73.379,115.98,73.259,116.133,73.235
		L116.133,73.235z"/>
	<path id="_170-2" class="st3" d="M118.672,67.939h0.6v0.437h0.437v-0.447h0.616v0.444h0.439v-0.447h0.615v1.006
		c0.001,0.143-0.114,0.259-0.257,0.259c-0.004,0-0.007,0-0.011,0h-2.158c-0.149,0.002-0.273-0.115-0.281-0.264v-0.994"/>
	<path id="_169-2" class="st12" d="M118.643,67.939h0.613v0.434h0.446v-0.444h0.63v0.444h0.449v-0.444h0.628v1.006
		c-0.001,0.145-0.12,0.261-0.265,0.259c-0.004,0-0.008,0-0.011,0h-2.2c-0.151,0.003-0.276-0.114-0.285-0.264v-0.994L118.643,67.939z
		"/>
	<polyline id="_168-2" class="st3" points="120.952,69.284 121.091,72.512 118.938,72.502 119.082,69.277 120.952,69.284 	"/>
	<polyline id="_167-2" class="st13" points="120.952,69.284 121.091,72.51 118.938,72.502 119.082,69.277 120.952,69.284 	"/>
	<path id="_166-2" class="st3" d="M121.311,69.518h0.6v0.435h0.437v-0.444h0.615v0.442h0.439v-0.444h0.616v1
		c0.001,0.143-0.114,0.26-0.257,0.261c-0.004,0-0.008,0-0.012,0h-2.158c-0.149,0.001-0.272-0.114-0.281-0.263v-0.994"/>
	<polygon id="_165-2" class="st14" points="123.63,70.778 123.696,72.519 121.633,72.519 121.692,70.781 123.633,70.781 
		123.63,70.781 	"/>
	<path id="_164-2" class="st12" d="M121.311,69.514h0.6v0.434h0.439v-0.444h0.613v0.444h0.439v-0.446h0.616v1
		c0,0.143-0.116,0.259-0.259,0.259c-0.003,0-0.007,0-0.01,0h-2.158c-0.148,0.001-0.27-0.114-0.278-0.261L121.311,69.514z"/>
	<path id="_163-2" class="st3" d="M116.006,69.518h0.6v0.435h0.44v-0.444h0.615v0.442h0.44v-0.444h0.615v1
		c0.002,0.142-0.112,0.259-0.255,0.261c-0.004,0-0.009,0-0.013,0h-2.158c-0.148,0-0.271-0.115-0.279-0.263v-0.994"/>
	<path id="_162-2" class="st12" d="M116.006,69.519h0.6v0.437h0.44V69.51h0.615v0.444h0.44v-0.446h0.615v1
		c0.002,0.142-0.112,0.259-0.255,0.261c-0.004,0-0.009,0-0.013,0h-2.158c-0.148,0-0.271-0.115-0.279-0.263v-0.994L116.006,69.519z"
		/>
	<polyline id="_161-2" class="st3" points="118.327,70.778 118.394,72.519 116.33,72.519 116.387,70.781 118.327,70.781 	"/>
	<polygon id="_160-2" class="st14" points="118.327,70.778 118.394,72.519 116.33,72.519 116.389,70.781 118.327,70.781 	"/>
	<path id="_159-2" class="st15" d="M119.807,70.305c-0.011-0.119,0.076-0.225,0.195-0.237s0.225,0.076,0.237,0.195
		c0.001,0.014,0.001,0.028,0,0.042v0.769h-0.432V70.305"/>
	<path id="_158-2" class="st15" d="M122.463,71.42c-0.014-0.114,0.068-0.218,0.182-0.231c0.114-0.014,0.218,0.068,0.231,0.182
		c0.002,0.017,0.002,0.033,0,0.05v0.594h-0.413V71.42"/>
	<path id="_157-2" class="st15" d="M117.141,71.42c-0.014-0.115,0.068-0.219,0.183-0.232s0.219,0.068,0.232,0.182
		c0.002,0.017,0.002,0.033,0,0.05v0.594h-0.415V71.42"/>
	<polyline id="_156-2" class="st3" points="146.233,70.778 146.299,72.519 144.235,72.519 144.294,70.781 146.233,70.781 	"/>
	<path id="_155-2" class="st3" d="M140.554,77.214c-0.107-1.456,0.709-2.824,2.041-3.423c1.379,0.569,2.231,1.964,2.109,3.45
		L140.554,77.214"/>
	<path id="_154-2" class="st3" d="M138.865,73.84l-0.342,3.174h2.07c0.019-2.625,1.988-3.06,2.036-3.05
		c1.285,0.447,2.12,1.691,2.046,3.05h2.076l-0.377-3.2l-7.509,0.02"/>
	<path id="_153-2" class="st12" d="M138.865,73.845l-0.342,3.172h2.07c0.019-2.624,1.988-3.061,2.036-3.051
		c1.285,0.448,2.12,1.692,2.046,3.051h2.076l-0.377-3.2L138.865,73.845z"/>
	<path id="_152-2" class="st3" d="M138.384,77.028h8.474c0.197,0.022,0.341,0.196,0.325,0.394c0.016,0.197-0.129,0.37-0.325,0.39
		h-8.474c-0.196-0.02-0.341-0.193-0.325-0.39C138.043,77.224,138.187,77.05,138.384,77.028"/>
	<path id="_151-2" class="st12" d="M138.384,77.028h8.474c0.197,0.022,0.341,0.196,0.325,0.394c0.016,0.197-0.129,0.37-0.325,0.39
		h-8.474c-0.196-0.02-0.341-0.193-0.325-0.39C138.043,77.224,138.187,77.05,138.384,77.028z"/>
	<path id="_150-2" class="st3" d="M141.465,77.014c-0.08-0.871,0.366-1.707,1.135-2.124c0.782,0.409,1.246,1.244,1.182,2.124
		H141.465"/>
	<path id="_149-2" class="st13" d="M141.465,77.014c-0.08-0.871,0.366-1.707,1.135-2.124c0.782,0.409,1.246,1.244,1.182,2.124
		H141.465"/>
	<path id="_148-2" class="st3" d="M138.564,72.529h8.123c0.195,0.026,0.332,0.204,0.307,0.399c-0.021,0.16-0.147,0.286-0.307,0.307
		h-8.123c-0.195-0.026-0.332-0.204-0.307-0.399C138.278,72.676,138.404,72.55,138.564,72.529"/>
	<path id="_147-2" class="st12" d="M138.564,72.524h8.123c0.195,0.026,0.332,0.204,0.307,0.399c-0.021,0.16-0.147,0.286-0.307,0.307
		h-8.123c-0.195-0.026-0.332-0.204-0.307-0.399C138.278,72.671,138.404,72.545,138.564,72.524z"/>
	<path id="_146-2" class="st3" d="M138.736,73.235h7.764c0.195,0.031,0.327,0.214,0.296,0.409c-0.024,0.152-0.144,0.272-0.296,0.296
		h-7.768c-0.195-0.031-0.327-0.214-0.296-0.409c0.024-0.152,0.144-0.272,0.296-0.296"/>
	<path id="_145-2" class="st12" d="M138.736,73.235h7.764c0.195,0.031,0.327,0.214,0.296,0.409
		c-0.024,0.152-0.144,0.272-0.296,0.296h-7.768c-0.195-0.031-0.327-0.214-0.296-0.409c0.024-0.152,0.144-0.272,0.296-0.296H138.736z
		"/>
	<path id="_144-2" class="st3" d="M141.274,67.939h0.6v0.437h0.437v-0.447h0.615v0.444h0.44v-0.447h0.615v1.006
		c0,0.143-0.116,0.259-0.259,0.259c-0.003,0-0.007,0-0.01,0h-2.158c-0.149,0.001-0.273-0.115-0.281-0.264v-0.994"/>
	<path id="_143-2" class="st12" d="M141.245,67.939h0.613v0.434h0.447v-0.444h0.629v0.444h0.45v-0.444h0.627v1.006
		c-0.001,0.145-0.12,0.261-0.265,0.259c-0.003,0-0.007,0-0.01,0h-2.2c-0.151,0.003-0.277-0.114-0.286-0.264v-0.994L141.245,67.939z"
		/>
	<polyline id="_142-2" class="st3" points="143.555,69.284 143.694,72.512 141.54,72.502 141.684,69.277 143.555,69.284 	"/>
	<polyline id="_141-2" class="st13" points="143.555,69.284 143.694,72.51 141.54,72.502 141.684,69.277 143.555,69.284 	"/>
	<path id="_140-2" class="st3" d="M143.914,69.518h0.6v0.435h0.437v-0.444h0.615v0.442h0.44v-0.444h0.615v1
		c0.002,0.142-0.112,0.259-0.255,0.261c-0.005,0-0.009,0-0.014,0h-2.158c-0.149,0.001-0.272-0.115-0.28-0.263v-0.994"/>
	<polygon id="_139-2" class="st14" points="146.233,70.778 146.299,72.519 144.235,72.519 144.294,70.781 146.235,70.781 
		146.233,70.781 	"/>
	<path id="_138-2" class="st12" d="M143.914,69.514h0.6v0.434h0.44v-0.444h0.612v0.444h0.44v-0.446h0.615v1
		c0.001,0.143-0.114,0.259-0.257,0.259c-0.004,0-0.008,0-0.012,0h-2.158c-0.148,0.001-0.27-0.114-0.28-0.261L143.914,69.514z"/>
	<path id="_137-2" class="st3" d="M138.608,69.518h0.6v0.435h0.44v-0.444h0.615v0.442h0.439v-0.444h0.615v1
		c0.001,0.143-0.114,0.26-0.257,0.261c-0.004,0-0.008,0-0.012,0h-2.158c-0.148,0-0.27-0.115-0.278-0.263v-0.994"/>
	<path id="_136-2" class="st12" d="M138.608,69.519h0.6v0.437h0.44V69.51h0.615v0.444h0.439v-0.446h0.615v1
		c0.001,0.143-0.114,0.26-0.257,0.261c-0.004,0-0.008,0-0.012,0h-2.158c-0.148,0-0.27-0.115-0.278-0.263v-0.994L138.608,69.519z"/>
	<polyline id="_135-2" class="st3" points="140.93,70.778 140.996,72.519 138.933,72.519 138.989,70.781 140.93,70.781 	"/>
	<polygon id="_134-2" class="st14" points="140.93,70.778 140.996,72.519 138.933,72.519 138.992,70.781 140.93,70.781 	"/>
	<path id="_133-2" class="st15" d="M142.409,70.305c-0.008-0.12,0.082-0.223,0.202-0.231c0.12-0.008,0.223,0.082,0.231,0.202
		c0.001,0.01,0.001,0.02,0,0.029v0.769h-0.433V70.305"/>
	<path id="_132-2" class="st15" d="M145.066,71.42c-0.014-0.114,0.067-0.218,0.182-0.231s0.218,0.068,0.231,0.182
		c0.002,0.017,0.002,0.033,0,0.05v0.594h-0.413V71.42"/>
	<path id="_131-2" class="st15" d="M139.744,71.42c-0.014-0.115,0.068-0.219,0.182-0.233c0.115-0.014,0.219,0.068,0.233,0.182
		c0.002,0.017,0.002,0.033,0,0.05v0.594h-0.415V71.42"/>
	<polyline id="_130-2" class="st3" points="100.774,93.94 100.84,95.678 98.777,95.678 98.835,93.94 100.774,93.94 	"/>
	<path id="_129-2" class="st3" d="M95.1,100.372c-0.106-1.457,0.709-2.826,2.041-3.426c1.378,0.57,2.229,1.964,2.107,3.45
		L95.1,100.372"/>
	<path id="_128-2" class="st3" d="M93.406,96.999l-0.342,3.173h2.07c0.02-2.625,1.988-3.061,2.037-3.052
		c1.285,0.448,2.119,1.693,2.045,3.052h2.075l-0.375-3.2l-7.51,0.019"/>
	<path id="_127-2" class="st12" d="M93.406,97.004l-0.342,3.174h2.07c0.02-2.624,1.988-3.058,2.034-3.049
		c1.286,0.447,2.121,1.69,2.048,3.049h2.075l-0.375-3.2L93.406,97.004z"/>
	<path id="_126-2" class="st3" d="M92.925,100.19h8.475c0.216,0.047,0.353,0.259,0.307,0.475c-0.033,0.154-0.153,0.273-0.307,0.307
		h-8.475c-0.216-0.047-0.353-0.259-0.307-0.475C92.652,100.343,92.771,100.223,92.925,100.19"/>
	<path id="_125-2" class="st12" d="M92.925,100.19h8.475c0.216,0.047,0.353,0.259,0.307,0.475c-0.033,0.154-0.153,0.273-0.307,0.307
		h-8.475c-0.216-0.047-0.353-0.259-0.307-0.475C92.652,100.343,92.771,100.223,92.925,100.19z"/>
	<path id="_124-2" class="st3" d="M96.006,100.172c-0.083-0.872,0.364-1.708,1.135-2.123c0.781,0.41,1.245,1.243,1.181,2.123H96.006
		"/>
	<path id="_123-2" class="st13" d="M96.006,100.172c-0.083-0.872,0.364-1.708,1.135-2.123c0.781,0.41,1.245,1.243,1.181,2.123
		H96.006"/>
	<path id="_122-2" class="st3" d="M93.106,95.69h8.122c0.193,0.029,0.326,0.21,0.297,0.403c-0.023,0.153-0.144,0.274-0.297,0.297
		h-8.122c-0.193-0.029-0.326-0.21-0.297-0.403C92.832,95.834,92.953,95.713,93.106,95.69"/>
	<path id="_121-2" class="st12" d="M93.106,95.686h8.122c0.193,0.029,0.326,0.21,0.297,0.403c-0.023,0.153-0.144,0.274-0.297,0.297
		h-8.122c-0.193-0.029-0.326-0.21-0.297-0.403C92.832,95.83,92.953,95.709,93.106,95.686z"/>
	<path id="_120-2" class="st3" d="M93.274,96.393h7.771c0.195,0.033,0.326,0.218,0.293,0.413c-0.025,0.15-0.143,0.268-0.293,0.293
		h-7.771c-0.195-0.036-0.324-0.223-0.288-0.418C93.013,96.534,93.128,96.42,93.274,96.393"/>
	<path id="_119-2" class="st12" d="M93.274,96.393h7.771c0.195,0.033,0.326,0.218,0.293,0.413c-0.025,0.15-0.143,0.268-0.293,0.293
		h-7.771c-0.195-0.036-0.324-0.223-0.288-0.418C93.013,96.534,93.128,96.42,93.274,96.393z"/>
	<path id="_118-2" class="st3" d="M95.816,91.098h0.6v0.437h0.439v-0.447h0.615v0.444h0.439v-0.444h0.616v1.006
		c0.001,0.143-0.114,0.258-0.257,0.259c-0.003,0-0.007,0-0.01,0h-2.16c-0.148,0.001-0.271-0.116-0.278-0.264v-0.994"/>
	<path id="_117-2" class="st12" d="M95.786,91.101H96.4v0.434h0.447v-0.444h0.627v0.445h0.449v-0.447h0.63v1.006
		c0,0.145-0.118,0.262-0.263,0.261c-0.004,0-0.008,0-0.011,0h-2.2c-0.15,0.002-0.275-0.113-0.286-0.263v-0.994L95.786,91.101z"/>
	<polyline id="_116-2" class="st3" points="98.095,92.443 98.232,95.671 96.081,95.663 96.225,92.438 98.095,92.446 	"/>
	<polyline id="_115-2" class="st13" points="98.095,92.443 98.232,95.671 96.081,95.662 96.225,92.436 98.095,92.443 	"/>
	<path id="_114-2" class="st3" d="M98.454,92.68h0.6v0.437h0.437v-0.445h0.615v0.444h0.44v-0.444h0.615v1.006
		c0,0.143-0.116,0.259-0.259,0.259c-0.003,0-0.006,0-0.009,0h-2.157c-0.15,0.002-0.274-0.115-0.282-0.264v-0.994"/>
	<polygon id="_113-2" class="st14" points="100.774,93.94 100.84,95.678 98.777,95.678 98.835,93.94 	"/>
	<path id="_112-2" class="st12" d="M98.454,92.672h0.6v0.437h0.437v-0.446h0.615v0.444h0.44v-0.446h0.615v1.011
		c0,0.143-0.116,0.259-0.259,0.259c-0.003,0-0.006,0-0.009,0h-2.157c-0.149,0.001-0.273-0.115-0.282-0.264V92.672z"/>
	<path id="_111-2" class="st3" d="M93.149,92.68h0.6v0.437h0.439v-0.445h0.613v0.444h0.44v-0.444h0.615v1.006
		c0,0.143-0.116,0.259-0.259,0.259c-0.003,0-0.007,0-0.01,0H93.43c-0.148,0.001-0.271-0.116-0.278-0.264v-0.994"/>
	<path id="_110-2" class="st12" d="M93.149,92.68h0.6v0.437h0.439v-0.445h0.613v0.444h0.44v-0.444h0.615v1.006
		c0,0.143-0.116,0.259-0.259,0.259c-0.003,0-0.007,0-0.01,0H93.43c-0.148,0.001-0.271-0.116-0.278-0.264L93.149,92.68z"/>
	<polyline id="_109-2" class="st3" points="95.471,93.94 95.534,95.678 93.472,95.678 93.53,93.94 95.471,93.94 	"/>
	<polygon id="_108-2" class="st14" points="95.471,93.94 95.534,95.678 93.474,95.678 93.53,93.94 95.471,93.94 95.469,93.94 	"/>
	<path id="_107-2" class="st15" d="M96.951,93.464c-0.011-0.119,0.076-0.225,0.195-0.237s0.225,0.076,0.237,0.195
		c0.001,0.014,0.001,0.028,0,0.042v0.769h-0.432V93.464"/>
	<path id="_106-2" class="st15" d="M99.6,94.58c-0.014-0.115,0.068-0.219,0.183-0.232s0.219,0.068,0.232,0.182
		c0.002,0.017,0.002,0.033,0,0.05v0.592H99.6v-0.593"/>
	<path id="_105-2" class="st15" d="M94.284,94.58c-0.014-0.114,0.068-0.218,0.182-0.231c0.114-0.014,0.218,0.068,0.231,0.182
		c0.002,0.017,0.002,0.033,0,0.05v0.592h-0.413v-0.593"/>
	<polyline id="_104-2" class="st3" points="141.428,121.059 140.247,122.336 138.787,120.876 140.059,119.687 141.428,121.059 	"/>
	<path id="_103-2" class="st3" d="M132.864,121.594c0.954-1.106,2.497-1.497,3.862-0.979c0.573,1.377,0.19,2.965-0.947,3.93
		L132.864,121.594"/>
	<path id="_102-2" class="st3" d="M134.055,118.012l-2.485,2l1.46,1.468c1.87-1.841,3.572-0.76,3.6-0.718
		c0.591,1.227,0.301,2.696-0.712,3.606l1.469,1.467l2-2.527l-5.325-5.3"/>
	<path id="_101-2" class="st12" d="M134.05,118.017l-2.483,2l1.46,1.467c1.87-1.844,3.569-0.762,3.6-0.721
		c0.592,1.227,0.302,2.697-0.711,3.607l1.467,1.467l2-2.528l-5.325-5.3L134.05,118.017z"/>
	<path id="_100-2" class="st3" d="M131.46,119.929l5.991,5.991c0.121,0.185,0.07,0.433-0.114,0.554c-0.133,0.088-0.306,0.088-0.44,0
		l-5.991-5.991c-0.121-0.185-0.07-0.433,0.114-0.554C131.154,119.841,131.327,119.841,131.46,119.929"/>
	<path id="_99-2" class="st12" d="M131.46,119.928l5.991,5.992c0.121,0.185,0.07,0.433-0.114,0.554c-0.133,0.088-0.306,0.088-0.44,0
		l-5.991-5.991c-0.122-0.184-0.072-0.432,0.111-0.555C131.151,119.839,131.326,119.839,131.46,119.928z"/>
	<path id="_98-2" class="st3" d="M133.647,122.097c0.559-0.674,1.467-0.95,2.307-0.7c0.263,0.843,0,1.76-0.668,2.337l-1.639-1.638"
		/>
	<path id="_97-2" class="st13" d="M133.647,122.097c0.56-0.675,1.468-0.95,2.308-0.7c0.262,0.843-0.001,1.76-0.669,2.337
		l-1.639-1.638"/>
	<path id="_96-2" class="st3" d="M134.768,116.872l5.745,5.742c0.126,0.151,0.105,0.374-0.045,0.5c-0.132,0.11-0.323,0.11-0.455,0
		l-5.743-5.742c-0.119-0.138-0.107-0.347,0.029-0.469c0.121-0.138,0.331-0.151,0.469-0.029c0,0,0,0,0,0"/>
	<path id="_95-2" class="st12" d="M134.772,116.872l5.743,5.745c0.126,0.151,0.105,0.374-0.045,0.5c-0.132,0.11-0.323,0.11-0.455,0
		l-5.743-5.745c-0.126-0.151-0.105-0.374,0.045-0.5C134.449,116.762,134.64,116.762,134.772,116.872z"/>
	<path id="_94-2" class="st3" d="M134.389,117.492l5.5,5.5c0.122,0.154,0.095,0.378-0.059,0.5c-0.129,0.102-0.312,0.102-0.441,0
		l-5.5-5.493c-0.119-0.157-0.087-0.381,0.07-0.5c0.127-0.096,0.303-0.096,0.43,0"/>
	<path id="_93-2" class="st12" d="M134.39,117.492l5.493,5.493c0.116,0.138,0.099,0.344-0.037,0.462
		c-0.117,0.136-0.322,0.152-0.459,0.036l-5.5-5.493c-0.119-0.157-0.087-0.381,0.07-0.5c0.127-0.096,0.303-0.096,0.43,0
		L134.39,117.492z"/>
	<path id="_92-2" class="st3" d="M139.932,115.544l0.422,0.425l-0.308,0.308l0.31,0.31l0.315-0.315l0.435,0.436l-0.315,0.313
		l0.31,0.31l0.315-0.314l0.435,0.436l-0.711,0.71c-0.1,0.101-0.263,0.103-0.365,0.002c-0.003-0.003-0.005-0.006-0.008-0.008
		l-1.526-1.527c-0.106-0.104-0.112-0.273-0.012-0.383l0.7-0.7"/>
	<path id="_91-2" class="st12" d="M139.91,115.525l0.432,0.434l-0.308,0.308l0.318,0.315l0.315-0.315l0.442,0.446l-0.313,0.313
		l0.318,0.318l0.315-0.316l0.444,0.447l-0.713,0.711c-0.106,0.102-0.274,0.099-0.376-0.007c-0.001-0.001-0.002-0.002-0.003-0.003
		l-1.557-1.56c-0.109-0.104-0.116-0.275-0.017-0.388l0.7-0.706L139.91,115.525z"/>
	<polyline id="_90-2" class="st3" points="140.59,118.108 138.408,120.488 136.892,118.96 139.275,116.782 140.59,118.11 	"/>
	<polyline id="_89-2" class="st13" points="140.59,118.108 138.408,120.488 136.892,118.96 139.275,116.78 140.59,118.108 	"/>
	<path id="_88-2" class="st3" d="M140.679,118.528l0.425,0.424l-0.308,0.31l0.31,0.308l0.315-0.315l0.432,0.437l-0.312,0.315
		l0.31,0.31l0.315-0.315l0.434,0.435l-0.713,0.71c-0.098,0.103-0.262,0.107-0.365,0.008c-0.003-0.003-0.006-0.005-0.008-0.008
		l-1.527-1.525c-0.104-0.106-0.108-0.275-0.009-0.386l0.7-0.7"/>
	<polygon id="_87-2" class="st14" points="141.428,121.059 140.246,122.336 138.786,120.878 140.059,119.69 141.431,121.059 	"/>
	<path id="_86-2" class="st12" d="M140.684,118.525l0.422,0.425l-0.308,0.308l0.31,0.31l0.315-0.315l0.435,0.437l-0.316,0.312
		l0.31,0.313L142.17,120l0.432,0.435l-0.71,0.71c-0.099,0.101-0.261,0.102-0.362,0.003c-0.004-0.004-0.007-0.008-0.011-0.011
		l-1.526-1.525c-0.106-0.104-0.111-0.273-0.012-0.384L140.684,118.525z"/>
	<path id="_85-2" class="st3" d="M136.929,114.778l0.425,0.424l-0.31,0.308l0.31,0.31l0.315-0.315l0.434,0.437l-0.315,0.313
		l0.313,0.312l0.315-0.315l0.434,0.435l-0.713,0.71c-0.098,0.103-0.262,0.107-0.365,0.008c-0.003-0.003-0.006-0.005-0.008-0.008
		l-1.527-1.528c-0.106-0.104-0.11-0.274-0.009-0.383l0.7-0.7"/>
	<path id="_84-2" class="st12" d="M136.929,114.777l0.422,0.425l-0.307,0.308l0.31,0.312l0.314-0.317l0.435,0.437l-0.315,0.315
		l0.31,0.31l0.317-0.315l0.435,0.435l-0.713,0.71c-0.098,0.103-0.262,0.107-0.365,0.008c-0.003-0.003-0.006-0.005-0.008-0.008
		l-1.526-1.525c-0.106-0.105-0.111-0.275-0.012-0.387L136.929,114.777z"/>
	<polyline id="_83-2" class="st3" points="137.678,117.309 136.497,118.586 135.037,117.126 136.306,115.937 137.678,117.309 	"/>
	<polygon id="_82-2" class="st14" points="137.678,117.309 136.496,118.586 135.036,117.126 136.309,115.937 	"/>
	<path id="_81-2" class="st15" d="M139.06,118.02c0.078-0.091,0.215-0.102,0.306-0.024c0.091,0.078,0.102,0.215,0.024,0.306
		c-0.007,0.008-0.015,0.016-0.023,0.023l-0.544,0.544l-0.305-0.307L139.06,118.02"/>
	<path id="_80-2" class="st15" d="M140.151,120.686c0.073-0.088,0.204-0.1,0.292-0.026c0.088,0.073,0.1,0.204,0.026,0.292
		c-0.008,0.01-0.017,0.019-0.027,0.027l-0.42,0.42l-0.291-0.292L140.151,120.686"/>
	<path id="_79-2" class="st15" d="M136.389,116.923c0.073-0.089,0.204-0.102,0.293-0.03s0.102,0.204,0.03,0.293
		c-0.009,0.011-0.02,0.022-0.031,0.031l-0.42,0.42l-0.291-0.294L136.389,116.923"/>
	<polyline id="_78-2" class="st3" points="146.199,93.94 146.264,95.678 144.202,95.681 144.26,93.94 146.199,93.94 	"/>
	<path id="_77-2" class="st3" d="M140.52,100.372c-0.107-1.457,0.708-2.826,2.041-3.426c1.376,0.571,2.227,1.965,2.107,3.45
		L140.52,100.372"/>
	<path id="_76-2" class="st3" d="M138.831,96.999l-0.342,3.173h2.07c0.02-2.625,1.987-3.061,2.036-3.052
		c1.286,0.448,2.12,1.692,2.046,3.052h2.075l-0.375-3.2l-7.51,0.017"/>
	<path id="_75-2" class="st12" d="M138.831,97.004l-0.342,3.174h2.07c0.02-2.625,1.987-3.061,2.033-3.052
		c1.287,0.447,2.123,1.692,2.049,3.052h2.075l-0.375-3.2l-7.51,0.019l0,0L138.831,97.004z"/>
	<path id="_74-2" class="st3" d="M138.349,100.19h8.475c0.216,0.044,0.356,0.255,0.312,0.472c-0.032,0.157-0.155,0.28-0.312,0.312
		h-8.475c-0.216-0.044-0.356-0.255-0.312-0.472C138.069,100.345,138.192,100.222,138.349,100.19"/>
	<path id="_73-2" class="st12" d="M138.349,100.19h8.475c0.216,0.044,0.356,0.255,0.312,0.472c-0.032,0.157-0.155,0.28-0.312,0.312
		h-8.475c-0.216-0.044-0.356-0.255-0.312-0.472C138.069,100.345,138.192,100.222,138.349,100.19z"/>
	<path id="_72-2" class="st3" d="M141.431,100.172c-0.082-0.871,0.365-1.707,1.135-2.123c0.781,0.409,1.246,1.243,1.182,2.123
		H141.431"/>
	<path id="_71-2" class="st13" d="M141.431,100.172c-0.082-0.871,0.365-1.707,1.135-2.123c0.781,0.409,1.246,1.243,1.182,2.123
		H141.431"/>
	<path id="_70-2" class="st3" d="M138.53,95.69h8.123c0.193,0.029,0.326,0.21,0.297,0.403c-0.023,0.153-0.144,0.274-0.297,0.297
		h-8.123c-0.193-0.029-0.326-0.21-0.297-0.403C138.256,95.834,138.377,95.713,138.53,95.69"/>
	<path id="_69-2" class="st12" d="M138.53,95.686h8.123c0.193,0.029,0.326,0.21,0.297,0.403c-0.023,0.153-0.144,0.274-0.297,0.297
		h-8.123c-0.193-0.029-0.326-0.21-0.297-0.403C138.256,95.83,138.377,95.709,138.53,95.686z"/>
	<path id="_68-2" class="st3" d="M138.7,96.396h7.769c0.193,0.039,0.319,0.227,0.28,0.42c-0.028,0.141-0.139,0.251-0.28,0.28H138.7
		c-0.193-0.036-0.321-0.222-0.285-0.415C138.442,96.536,138.555,96.423,138.7,96.396"/>
	<path id="_67-2" class="st12" d="M138.7,96.396h7.769c0.193,0.039,0.319,0.227,0.28,0.42c-0.028,0.141-0.139,0.251-0.28,0.28H138.7
		c-0.193-0.036-0.321-0.222-0.285-0.415C138.442,96.536,138.555,96.423,138.7,96.396z"/>
	<path id="_66-2" class="st3" d="M141.24,91.098h0.6v0.434h0.437v-0.444h0.615v0.444h0.44v-0.444h0.614v1.006
		c0.001,0.143-0.114,0.258-0.257,0.259c-0.003,0-0.007,0-0.01,0h-2.158c-0.149,0.002-0.273-0.115-0.281-0.264v-0.994"/>
	<path id="_65-2" class="st12" d="M141.211,91.101h0.613v0.437h0.447v-0.447h0.63v0.445h0.446v-0.447h0.63v1.006
		c0,0.145-0.118,0.262-0.263,0.261c-0.004,0-0.009,0-0.013,0h-2.2c-0.15,0.002-0.276-0.113-0.286-0.263v-0.994L141.211,91.101z"/>
	<polyline id="_64-2" class="st3" points="143.52,92.446 143.659,95.671 141.506,95.663 141.65,92.438 143.52,92.446 	"/>
	<polyline id="_63-2" class="st13" points="143.52,92.446 143.659,95.671 141.506,95.664 141.65,92.436 143.52,92.446 	"/>
	<path id="_62-2" class="st3" d="M143.879,92.68h0.6v0.437h0.437v-0.445h0.615v0.444h0.44v-0.444h0.615v1.006
		c0,0.143-0.116,0.259-0.259,0.259c-0.003,0-0.007,0-0.01,0h-2.157c-0.149,0.001-0.273-0.115-0.281-0.264v-0.994"/>
	<polygon id="_61-2" class="st14" points="146.199,93.94 146.264,95.678 144.202,95.681 144.26,93.94 	"/>
	<path id="_60-2" class="st12" d="M143.879,92.672h0.6v0.437h0.437v-0.446h0.615v0.444h0.44v-0.446h0.615v1.011
		c0,0.143-0.116,0.259-0.259,0.259c-0.003,0-0.007,0-0.01,0h-2.157c-0.149,0-0.272-0.116-0.281-0.264V92.672z"/>
	<path id="_59-2" class="st3" d="M138.574,92.68h0.6v0.437h0.439v-0.445h0.613v0.444h0.442v-0.444h0.613v1.006
		c0,0.143-0.116,0.259-0.259,0.259c-0.003,0-0.007,0-0.01,0h-2.158c-0.148,0.001-0.271-0.116-0.278-0.264v-0.994"/>
	<path id="_58-2" class="st12" d="M138.574,92.68h0.6v0.434h0.439v-0.442h0.613v0.444h0.442v-0.444h0.613v1.006
		c0,0.143-0.116,0.259-0.259,0.259c-0.003,0-0.007,0-0.01,0h-2.158c-0.148,0.001-0.271-0.116-0.278-0.264L138.574,92.68z"/>
	<polyline id="_57-2" class="st3" points="140.896,93.94 140.962,95.678 138.896,95.681 138.955,93.94 140.896,93.94 	"/>
	<polygon id="_56-2" class="st14" points="140.896,93.94 140.962,95.678 138.899,95.681 138.955,93.94 	"/>
	<path id="_55-2" class="st15" d="M142.376,93.464c-0.011-0.119,0.076-0.225,0.195-0.237c0.119-0.011,0.225,0.076,0.237,0.195
		c0.001,0.014,0.001,0.028,0,0.042v0.769h-0.432V93.464"/>
	<path id="_54-2" class="st15" d="M145.029,94.58c-0.014-0.115,0.068-0.219,0.182-0.233c0.115-0.014,0.219,0.068,0.233,0.182
		c0.002,0.017,0.002,0.033,0,0.05v0.592h-0.415v-0.593"/>
	<path id="_53-2" class="st15" d="M139.709,94.58c-0.014-0.114,0.067-0.218,0.182-0.231s0.218,0.068,0.231,0.182
		c0.002,0.017,0.002,0.033,0,0.05v0.592h-0.413v-0.593"/>
	<polyline id="_52-2" class="st3" points="103.574,115.92 104.851,117.104 103.391,118.564 102.202,117.292 103.574,115.92 	"/>
	<path id="_51-2" class="st3" d="M104.109,124.49c-1.108-0.953-1.498-2.498-0.977-3.863c1.377-0.573,2.967-0.19,3.931,0.948
		L104.109,124.49"/>
	<path id="_50-2" class="st3" d="M100.53,123.295l2,2.483l1.467-1.46c-1.841-1.87-0.759-3.569-0.718-3.6
		c1.225-0.59,2.692-0.301,3.6,0.711l1.469-1.468l-2.527-1.994l-5.3,5.324"/>
	<path id="_49-2" class="st12" d="M100.53,123.3l2,2.483l1.467-1.46c-1.841-1.87-0.759-3.569-0.718-3.6
		c1.225-0.59,2.692-0.301,3.6,0.711l1.467-1.468l-2.525-2l-5.3,5.325L100.53,123.3z"/>
	<path id="_48-2" class="st3" d="M102.444,125.891l5.991-5.994c0.155-0.122,0.379-0.1,0.508,0.049
		c0.15,0.128,0.17,0.353,0.046,0.506L103,126.443c-0.185,0.12-0.433,0.067-0.553-0.118c-0.085-0.132-0.086-0.302-0.001-0.434"/>
	<path id="_47-2" class="st12" d="M102.444,125.891l5.993-5.994c0.185-0.12,0.433-0.067,0.553,0.118
		c0.086,0.133,0.086,0.304-0.001,0.437L103,126.443c-0.185,0.12-0.433,0.067-0.553-0.118c-0.085-0.132-0.086-0.302-0.001-0.434
		H102.444z"/>
	<path id="_46-2" class="st3" d="M104.609,123.701c-0.674-0.56-0.95-1.468-0.7-2.308c0.843-0.261,1.76,0.002,2.336,0.67
		l-1.638,1.638"/>
	<path id="_45-2" class="st13" d="M104.609,123.701c-0.674-0.56-0.95-1.468-0.7-2.308c0.842-0.261,1.759,0.001,2.336,0.667
		l-1.638,1.638"/>
	<path id="_44-2" class="st3" d="M99.385,122.58l5.744-5.745c0.151-0.126,0.374-0.105,0.5,0.045c0.11,0.132,0.11,0.323,0,0.455
		l-5.744,5.745c-0.151,0.126-0.374,0.105-0.5-0.045C99.275,122.903,99.275,122.712,99.385,122.58"/>
	<path id="_43-2" class="st12" d="M99.385,122.58l5.744-5.744c0.145-0.131,0.369-0.12,0.5,0.025c0.122,0.135,0.122,0.34,0,0.475
		l-5.744,5.745c-0.151,0.126-0.374,0.105-0.5-0.045C99.275,122.904,99.275,122.713,99.385,122.58L99.385,122.58z"/>
	<path id="_42-2" class="st3" d="M100.005,122.954l5.493-5.494c0.139-0.113,0.343-0.095,0.461,0.04
		c0.136,0.117,0.153,0.321,0.037,0.458l-5.496,5.494c-0.137,0.116-0.342,0.099-0.459-0.037c-0.136-0.118-0.153-0.322-0.039-0.461"/>
	<path id="_41-2" class="st12" d="M100.005,122.954l5.493-5.493c0.138-0.114,0.342-0.097,0.459,0.039
		c0.137,0.116,0.155,0.321,0.039,0.458c0,0,0,0,0,0l-5.496,5.494c-0.138,0.116-0.343,0.098-0.459-0.039
		c-0.136-0.117-0.153-0.321-0.039-0.459L100.005,122.954z"/>
	<path id="_40-2" class="st3" d="M98.059,117.419l0.425-0.422l0.307,0.307l0.311-0.31l-0.315-0.315l0.437-0.432l0.312,0.313
		l0.31-0.31l-0.315-0.315l0.437-0.435l0.711,0.713c0.1,0.099,0.102,0.26,0.003,0.361c-0.004,0.004-0.007,0.007-0.011,0.01
		l-1.525,1.526c-0.103,0.107-0.273,0.113-0.383,0.012l-0.7-0.7"/>
	<path id="_39-2" class="st12" d="M98.039,117.438l0.435-0.431l0.308,0.307l0.317-0.315l-0.315-0.315l0.445-0.444l0.315,0.315
		l0.317-0.318l-0.315-0.314l0.444-0.447l0.711,0.712c0.102,0.102,0.102,0.267,0,0.369c-0.003,0.003-0.007,0.007-0.01,0.01
		l-1.56,1.56c-0.105,0.108-0.276,0.114-0.389,0.015l-0.7-0.7L98.039,117.438z"/>
	<polyline id="_38-2" class="st3" points="100.625,116.755 103.005,118.938 101.477,120.454 99.297,118.073 100.625,116.755 	"/>
	<polyline id="_37-2" class="st13" points="100.625,116.76 103.003,118.943 101.477,120.458 99.297,118.076 100.625,116.76 	"/>
	<path id="_36-2" class="st3" d="M101.042,116.672l0.425-0.423l0.31,0.308l0.308-0.31l-0.315-0.315l0.437-0.432l0.315,0.312
		l0.31-0.31l-0.315-0.315l0.435-0.434l0.71,0.712c0.101,0.099,0.103,0.262,0.004,0.363c-0.003,0.003-0.006,0.006-0.009,0.009
		l-1.526,1.528c-0.106,0.105-0.274,0.109-0.385,0.01l-0.7-0.7"/>
	<polygon id="_35-2" class="st14" points="103.574,115.92 104.85,117.104 103.393,118.564 102.205,117.292 	"/>
	<path id="_34-2" class="st12" d="M101.04,116.665l0.425-0.423l0.307,0.308l0.31-0.31l-0.314-0.315l0.436-0.432l0.313,0.312
		l0.312-0.31l-0.315-0.315l0.435-0.434l0.711,0.712c0.101,0.099,0.102,0.261,0.002,0.362c-0.003,0.003-0.007,0.007-0.01,0.01
		l-1.526,1.526c-0.104,0.105-0.273,0.111-0.383,0.012l-0.7-0.7L101.04,116.665z"/>
	<path id="_33-2" class="st3" d="M97.3,120.42l0.425-0.425l0.307,0.31l0.31-0.31l-0.315-0.315l0.437-0.435l0.313,0.315l0.312-0.312
		l-0.315-0.315l0.435-0.434l0.71,0.712c0.103,0.098,0.107,0.261,0.009,0.365c-0.003,0.003-0.006,0.006-0.009,0.009l-1.528,1.525
		c-0.104,0.107-0.274,0.111-0.383,0.01l-0.7-0.7"/>
	<path id="_32-2" class="st12" d="M97.3,120.42l0.425-0.423l0.307,0.308l0.31-0.31l-0.315-0.315l0.437-0.435l0.315,0.315l0.31-0.31
		l-0.315-0.317l0.435-0.434l0.71,0.712c0.103,0.098,0.107,0.261,0.009,0.365c-0.003,0.003-0.006,0.006-0.009,0.009l-1.528,1.525
		c-0.104,0.106-0.272,0.112-0.383,0.013L97.3,120.42z"/>
	<polyline id="_31-3" class="st3" points="99.824,119.67 101.101,120.852 99.644,122.312 98.454,121.042 99.824,119.67 	"/>
	<polygon id="_30-2" class="st14" points="99.824,119.67 101.101,120.852 99.644,122.312 98.454,121.04 	"/>
	<path id="_29-2" class="st15" d="M100.534,118.291c-0.094-0.076-0.109-0.214-0.033-0.308c0.076-0.094,0.214-0.109,0.308-0.033
		c0.012,0.01,0.023,0.021,0.033,0.033l0.542,0.545l-0.305,0.3l-0.545-0.542"/>
	<path id="_28-2" class="st15" d="M103.2,117.202c-0.088-0.074-0.1-0.205-0.026-0.293s0.205-0.1,0.293-0.026
		c0.009,0.008,0.018,0.016,0.026,0.026l0.42,0.42l-0.293,0.293L103.2,117.202"/>
	<path id="_27-2" class="st15" d="M99.441,120.964c-0.09-0.07-0.107-0.2-0.037-0.29c0.07-0.09,0.2-0.107,0.29-0.037
		c0.013,0.01,0.026,0.023,0.036,0.036l0.42,0.42l-0.29,0.291L99.441,120.964"/>
	<path id="_26-2" class="st16" d="M122.156,114.101c-0.411-0.001-0.745,0.331-0.746,0.742c-0.001,0.411,0.331,0.745,0.742,0.746
		c0.411,0.001,0.745-0.331,0.746-0.742c0-0.001,0-0.003,0-0.004C122.897,114.434,122.565,114.102,122.156,114.101"/>
	<path id="_25-2" class="st16" d="M118.037,114.106c-0.411-0.001-0.745,0.331-0.746,0.742c-0.001,0.411,0.331,0.745,0.742,0.746
		c0.411,0.001,0.745-0.331,0.746-0.742c0-0.001,0-0.003,0-0.004C118.778,114.438,118.447,114.107,118.037,114.106"/>
	<path id="_24-2" class="st16" d="M120.078,112.017c-0.41,0-0.743,0.333-0.743,0.743s0.333,0.743,0.743,0.743
		c0.41,0,0.742-0.332,0.743-0.742C120.82,112.351,120.488,112.018,120.078,112.017"/>
	<path id="_23-2" class="st16" d="M122.161,110.019c-0.411-0.001-0.745,0.331-0.746,0.742s0.331,0.745,0.742,0.746
		s0.745-0.331,0.746-0.742c0,0,0-0.001,0-0.001C122.902,110.354,122.571,110.021,122.161,110.019"/>
	<path id="_22-2" class="st16" d="M132.566,101.23c-0.41-0.001-0.743,0.332-0.744,0.742s0.332,0.743,0.742,0.744
		c0.41,0.001,0.743-0.332,0.744-0.742c0-0.001,0-0.001,0-0.002C133.307,101.563,132.975,101.231,132.566,101.23"/>
	<path id="_21-2" class="st16" d="M128.508,101.235c-0.411-0.001-0.744,0.332-0.745,0.743s0.332,0.744,0.743,0.745
		c0.411,0.001,0.744-0.332,0.745-0.743l0,0C129.25,101.57,128.918,101.237,128.508,101.235"/>
	<path id="_20-2" class="st16" d="M130.486,99.145c-0.411,0.001-0.744,0.334-0.743,0.745s0.334,0.744,0.745,0.743
		c0.411-0.001,0.744-0.334,0.743-0.745c0,0,0-0.001,0-0.001C131.229,99.477,130.896,99.145,130.486,99.145"/>
	<path id="_19-2" class="st16" d="M132.568,97.148c-0.41,0.002-0.741,0.335-0.739,0.745s0.335,0.741,0.745,0.739
		c0.409-0.002,0.739-0.333,0.739-0.742C133.311,97.48,132.978,97.149,132.568,97.148"/>
	<path id="_18-2" class="st16" d="M128.5,97.146c-0.41,0-0.742,0.332-0.742,0.742s0.332,0.742,0.742,0.742
		c0.41,0,0.742-0.332,0.742-0.742C129.241,97.479,128.909,97.147,128.5,97.146"/>
	<path id="_17-2" class="st16" d="M122.192,101.21c-0.41-0.001-0.743,0.332-0.744,0.742s0.332,0.743,0.742,0.744
		s0.743-0.332,0.744-0.742c0,0,0-0.001,0-0.001C122.933,101.544,122.601,101.212,122.192,101.21"/>
	<path id="_16-2" class="st16" d="M118.037,101.215c-0.41-0.001-0.743,0.332-0.744,0.742s0.332,0.743,0.742,0.744
		s0.743-0.332,0.744-0.742c0,0,0-0.001,0-0.001C118.779,101.548,118.447,101.216,118.037,101.215"/>
	<path id="_15-2" class="st16" d="M120.112,99.126c-0.41,0-0.742,0.332-0.742,0.742s0.332,0.742,0.742,0.742
		s0.742-0.332,0.742-0.742C120.853,99.458,120.522,99.127,120.112,99.126"/>
	<path id="_14-3" class="st16" d="M122.2,97.128c-0.41-0.001-0.743,0.332-0.744,0.742s0.332,0.743,0.742,0.744
		s0.743-0.332,0.744-0.742c0,0,0-0.001,0-0.001C122.941,97.461,122.61,97.129,122.2,97.128"/>
	<path id="_13-3" class="st16" d="M118.037,97.123c-0.411-0.001-0.745,0.331-0.746,0.742s0.331,0.745,0.742,0.746
		s0.745-0.331,0.746-0.742c0-0.001,0-0.002,0-0.003C118.778,97.456,118.447,97.124,118.037,97.123"/>
	<path id="_12-3" class="st16" d="M111.792,101.235c-0.411-0.001-0.745,0.331-0.746,0.742c-0.001,0.411,0.331,0.745,0.742,0.746
		c0.411,0.001,0.745-0.331,0.746-0.742c0-0.001,0-0.003,0-0.004C112.532,101.568,112.201,101.237,111.792,101.235"/>
	<path id="_11-3" class="st16" d="M107.737,101.24c-0.411-0.001-0.745,0.331-0.746,0.742s0.331,0.745,0.742,0.746
		s0.745-0.331,0.746-0.742c0,0,0-0.001,0-0.001C108.478,101.575,108.147,101.243,107.737,101.24"/>
	<path id="_10-3" class="st16" d="M109.714,99.15c-0.411-0.001-0.745,0.331-0.746,0.742s0.331,0.745,0.742,0.746
		s0.745-0.331,0.746-0.742c0,0,0-0.001,0-0.001C110.455,99.485,110.124,99.152,109.714,99.15"/>
	<path id="_9-3" class="st16" d="M111.8,97.153c-0.411-0.001-0.745,0.331-0.746,0.742s0.331,0.745,0.742,0.746
		s0.745-0.331,0.746-0.742c0,0,0-0.001,0-0.001C112.542,97.488,112.21,97.155,111.8,97.153"/>
	<path id="_8-3" class="st16" d="M118.037,110.017c-0.41,0-0.742,0.332-0.742,0.742s0.332,0.742,0.742,0.742
		s0.742-0.332,0.742-0.742C118.778,110.349,118.447,110.018,118.037,110.017"/>
	<path id="_7-3" class="st17" d="M107.724,97.15c-0.41,0-0.743,0.333-0.743,0.743s0.333,0.743,0.743,0.743s0.743-0.333,0.743-0.743
		l0,0C108.466,97.483,108.134,97.151,107.724,97.15"/>
	<path id="_6-3" class="st16" d="M118.037,84.116c-0.411-0.001-0.745,0.331-0.746,0.742c-0.001,0.411,0.331,0.745,0.742,0.746
		c0.411,0.001,0.745-0.331,0.746-0.742c0-0.001,0-0.003,0-0.004C118.778,84.448,118.447,84.117,118.037,84.116"/>
	<path id="_5-3" class="st16" d="M122.107,84.116c-0.411-0.001-0.745,0.331-0.746,0.742c-0.001,0.411,0.331,0.745,0.742,0.746
		c0.411,0.001,0.745-0.331,0.746-0.742c0-0.001,0-0.003,0-0.004C122.847,84.449,122.516,84.118,122.107,84.116"/>
	<path id="_4-3" class="st16" d="M120.022,86.118c-0.41,0.002-0.741,0.335-0.739,0.745s0.335,0.741,0.745,0.739
		c0.409-0.002,0.739-0.333,0.739-0.742c-0.001-0.41-0.334-0.743-0.744-0.742C120.023,86.118,120.022,86.118,120.022,86.118"/>
	<path id="_3-4" class="st16" d="M122.1,88.203c-0.41,0.002-0.741,0.335-0.739,0.745s0.335,0.741,0.745,0.739
		c0.409-0.002,0.739-0.333,0.739-0.742c-0.001-0.41-0.334-0.743-0.744-0.742C122.101,88.203,122.1,88.203,122.1,88.203"/>
	<path id="_2-4" class="st16" d="M118.037,88.208c-0.41,0-0.742,0.332-0.742,0.742s0.332,0.742,0.742,0.742s0.742-0.332,0.742-0.742
		S118.447,88.208,118.037,88.208L118.037,88.208"/>
	<path id="_1-4" class="st16" d="M107.727,97.15c-0.41,0.001-0.742,0.335-0.741,0.745s0.335,0.742,0.745,0.741
		c0.41-0.001,0.741-0.333,0.741-0.743C108.471,97.482,108.138,97.15,107.727,97.15"/>
</g>
</svg>
